<?xml version="1.0" encoding="utf-8"?>
<!-- Generator: Adobe Illustrator 23.1.1, SVG Export Plug-In . SVG Version: 6.00 Build 0)  -->
<svg version="1.1" id="Layer_1" xmlns="http://www.w3.org/2000/svg" xmlns:xlink="http://www.w3.org/1999/xlink" x="0px" y="0px"
	 viewBox="0 0 334.4 368.2" style="enable-background:new 0 0 334.4 368.2;" xml:space="preserve">
<style type="text/css">
	.st0{fill:url(#SVGID_1_);}
	.st1{fill:#B29543;}
	.st2{fill:#F8CE46;}
	.st3{opacity:0.53;fill:none;stroke:#B29543;stroke-miterlimit:10;enable-background:new    ;}
	.st4{opacity:0.31;}
	.st5{fill:#E9B344;}
	.st6{opacity:0.65;}
	.st7{fill:#221F20;}
	.st8{fill:#C97816;enable-background:new    ;}
	.st9{fill:#F7931A;enable-background:new    ;}
	.st10{opacity:0.23;fill:#070D2E;}
	.st11{opacity:0.26;fill:#FFFFFF;}
	.st12{fill:#FFFFFF;}
	.st13{fill:#6EAD25;enable-background:new    ;}
	.st14{fill:#84D12E;enable-background:new    ;}
	.st15{opacity:0.48;fill:#FFFFFF;enable-background:new    ;}
	.st16{fill:#3D4B67;}
	.st17{fill:#272C39;}
	.st18{fill:#006E9C;enable-background:new    ;}
	.st19{fill:url(#SVGID_2_);}
	.st20{enable-background:new    ;}
	.st21{fill:#2B2B2B;enable-background:new    ;}
	.st22{opacity:0.31;fill:#606060;enable-background:new    ;}
	.st23{fill:none;stroke:#FFFFFF;stroke-width:1.9481;stroke-linecap:round;stroke-linejoin:round;stroke-miterlimit:10;}
	.st24{fill:#27406B;enable-background:new    ;}
	.st25{fill:#385D9A;enable-background:new    ;}
	.st26{fill-rule:evenodd;clip-rule:evenodd;fill:#FFFFFF;}
	.st27{fill:#1D244D;enable-background:new    ;}
	.st28{fill:#2A336E;enable-background:new    ;}
	.st29{fill:#FFFFFF;enable-background:new    ;}
	.st30{opacity:0.29;}
</style>
<radialGradient id="SVGID_1_" cx="167.215" cy="341.3681" r="119.7531" gradientUnits="userSpaceOnUse">
	<stop  offset="0" style="stop-color:#292929"/>
	<stop  offset="1" style="stop-color:#000000"/>
</radialGradient>
<path class="st0" d="M307.6,368.2H26.8C12,368.2,0,356.2,0,341.4v0c0-14.8,12-26.8,26.8-26.8h280.7c14.8,0,26.8,12,26.8,26.8v0
	C334.4,356.2,322.4,368.2,307.6,368.2z"/>
<title>frontlogo</title>
<g id="Group_156">
	<path id="Path_105" d="M1.6,230.5h23.1c3.1-0.1,6.2,0.4,9.1,1.5c2.1,0.8,3.9,2.1,5.4,3.8c1.2,1.4,2.1,3.1,2.6,4.9
		c0.4,1.6,0.7,3.3,0.7,4.9c0,1.7-0.3,3.3-0.7,4.9c-0.5,1.8-1.4,3.5-2.6,4.9c-1.5,1.7-3.3,2.9-5.4,3.7c-2.9,1.1-6,1.6-9.1,1.5H10.8
		v18.8H1.6V230.5z M10.8,253.7h13.4c1.1,0,2.1-0.1,3.2-0.4c1.1-0.3,2.1-0.7,3-1.3c0.9-0.6,1.7-1.5,2.2-2.5c0.6-1.2,0.9-2.5,0.8-3.9
		c0.1-1.4-0.2-2.7-0.7-4c-0.4-1-1.1-1.9-2-2.5c-0.9-0.6-1.8-1.1-2.9-1.3c-1.1-0.2-2.3-0.3-3.4-0.3H10.8V253.7z"/>
	<path id="Path_106" d="M95.1,230.5h9.7l20.1,49h-9.8l-4.9-13H89.4l-4.9,13h-9.4L95.1,230.5z M91.9,260h16l-7.9-21.1h-0.2L91.9,260z
		"/>
	<path id="Path_107" d="M178.7,260.3l-19.6-29.8h10.6l13.8,22l13.6-22h10.2l-19.6,29.8v19.2h-9.1V260.3z"/>
</g>
<g id="Group_162">
	<g id="Group_157">
		<circle id="Ellipse_4" class="st1" cx="283.9" cy="255.7" r="38.2"/>
		<circle id="Ellipse_5" class="st2" cx="286.9" cy="255.7" r="38.2"/>
		<circle id="Ellipse_6" class="st3" cx="286.9" cy="256.7" r="29.8"/>
	</g>
	<g id="Group_161">
		<g id="Group_158" class="st4">
			<path id="Path_108" class="st5" d="M273.7,275.7c-1.1,0-2.2-0.6-2.7-1.6c-1-1.6-0.5-3.7,1-4.9l19.4-13.5L272,242.2
				c-1.5-1.1-2-3.2-1-4.8c0.8-1.5,2.7-2,4.2-1.2c0.1,0,0.2,0.1,0.3,0.2l23.6,16.5c1.6,1.2,2,3.5,0.8,5.1c-0.2,0.3-0.5,0.5-0.8,0.8
				l-23.6,16.5C274.9,275.5,274.3,275.7,273.7,275.7z"/>
		</g>
		<g id="Group_159" class="st6">
			<path id="Path_109" class="st5" d="M278.3,275.7c-1.1,0-2.2-0.6-2.7-1.6c-1-1.6-0.5-3.7,1-4.9l19.4-13.5l-19.4-13.5
				c-1.5-1.1-2-3.2-1-4.8c0.8-1.5,2.7-2,4.2-1.2c0.1,0,0.2,0.1,0.3,0.2l23.6,16.5c1.6,1.2,2,3.5,0.8,5.1c-0.2,0.3-0.5,0.5-0.8,0.8
				l-23.6,16.5C279.6,275.5,278.9,275.7,278.3,275.7z"/>
		</g>
		<g id="Group_160">
			<path id="Path_110" class="st5" d="M282.3,275.7c-1.1,0-2.2-0.6-2.7-1.6c-1-1.6-0.6-3.7,1-4.9l19.4-13.5l-19.4-13.5
				c-1.5-1.1-2-3.2-1-4.8c0.8-1.5,2.7-2,4.2-1.2l0.3,0.2l23.6,16.5c1.6,1.2,2,3.5,0.8,5.1c-0.2,0.3-0.5,0.6-0.8,0.8L284,275.1
				C283.5,275.5,282.9,275.7,282.3,275.7z"/>
		</g>
	</g>
</g>
<path class="st7" d="M25,183.6c0,2.3-1.8,4.2-4.1,4.2c0,0-0.1,0-0.1,0H6.6c-0.4,0-0.7-0.1-1.1-0.2c-0.4,0.1-0.9,0.2-1.3,0.2
	c-2.3,0-4.2-1.8-4.2-4.1c0,0,0-0.1,0-0.1V6.9c0-1.1,0.4-2.3,1.2-3.1c1.5-1.7,4-1.8,5.6-0.4C7,3.6,7.1,3.7,7.2,3.8
	C8,4.7,8.4,5.8,8.4,6.9v172.2h8V23.3c0-1.1,0.5-2.2,1.3-3c0.8-0.8,1.9-1.2,3.1-1.2c2.3,0,4.2,1.8,4.2,4.1c0,0,0,0,0,0.1L25,183.6z"
	/>
<path class="st7" d="M53.2,4.1c1.5-1.7,4-1.8,5.6-0.4C58.9,3.9,59,4,59.2,4.1c0.8,0.8,1.2,1.9,1.2,3.1v178.6c0,2.3-1.9,4.2-4.2,4.2
	c-2.3,0-4.2-1.9-4.2-4.2V7.2C51.9,6,52.4,4.9,53.2,4.1z M155.6,27.9c-9.4-8.2-21.7-13.9-36.8-16.9C103.7,8,87.1,7.8,69,10.5
	c-1.1,0.3-2.3,0.1-3.2-0.7c-1-0.7-1.6-1.7-1.7-2.9c-0.2-1.1,0.1-2.3,0.8-3.2c0.6-0.9,1.6-1.5,2.8-1.7C75.7,0.8,84,0.1,92.2,0
	c6.9-0.1,13.9,0.3,20.8,1.3c5.7,0.9,11.3,2.1,16.8,3.5c4.8,1.3,9.4,3,13.8,5.2c3.5,1.7,6.9,3.7,10.2,5.7c2.6,1.7,5.1,3.6,7.4,5.8
	c12.7,11.2,18.8,24.1,18.3,38.7c0,0.7-0.2,1.5-0.6,2.1c-0.4,0.7-0.9,1.2-1.6,1.6c-0.6,0.4-1.4,0.6-2.1,0.5H175c-1.1,0-2.2-0.5-3-1.3
	c-0.8-0.8-1.2-2-1-3.1C171.4,48.1,166.2,37.4,155.6,27.9z M175.3,67.9c1.1,0,2.2,0.5,3,1.3c0.8,0.8,1.2,2,1.2,3.1
	c-0.3,14-6.2,25.9-17.7,35.6c-14,11.8-33.7,17.7-59.2,17.7c-8.7,0-17.4-0.7-26.1-2c-1.1-0.2-2.1-0.8-2.9-1.7
	c-3.7-2.5-5.5-6.3-5.5-11.5c-0.1-2.8,0.7-5.5,2.1-7.8c1.2-2.2,3.3-3.8,5.6-4.5c0.1-0.1,0.3-0.2,0.4-0.2c0.8-0.2,1.6-0.3,2.4-0.4
	c0.9,0,1.7,0.2,2.4,0.7c25.1,3.4,45.5,1.6,61.4-5.5c1-0.4,2.2-0.5,3.2-0.1c1.1,0.4,2,1.2,2.4,2.2c1,2,0.1,4.5-1.9,5.5
	c-0.1,0.1-0.3,0.1-0.4,0.2c-11.9,5.3-26.3,8-43.1,7.9c-8.4,0-16.7-0.6-25-1.8c-0.9,1.1-1.4,2.5-1.3,4c0,1.2,0.2,2.3,0.8,3.3
	c0.5,0.9,1,1.3,1.4,1.3c0.6,0,1.1,0.1,1.6,0.4c10.2,1.4,20.5,1.8,30.8,1.3c8.7-0.4,17.3-2,25.6-4.8c7.2-2.3,13.8-5.9,19.7-10.7
	c9.6-8,14.5-17.7,14.8-29.2C171.1,69.5,172.5,68.1,175.3,67.9z"/>
<path class="st7" d="M302.6,28.2c-1.7-1.7-3.5-3.2-5.5-4.5c-2.8-1.8-5.7-3.5-8.7-5c-3.9-2-8-3.6-12.3-4.7c-4.4-1.2-9.8-2.5-16-3.7
	c-6.7-1.2-13.4-1.8-20.2-1.7c-7.2,0.1-15.6,0.5-25,1.2v178.6c0,1.2-0.4,2.3-1.2,3.1c-1.5,1.7-4,1.8-5.6,0.4
	c-0.1-0.1-0.2-0.2-0.4-0.4c-0.8-0.8-1.2-1.9-1.2-3.1V6.5c-0.2-1.1,0.2-2.3,0.9-3.2c0.7-0.9,1.8-1.4,2.9-1.4
	c21.3-2.7,40.6-2.3,57.7,1.2s30.6,9.7,40.5,18.7c9.3,8.5,13.8,18.1,13.5,28.5c0,2.3-1.8,4.2-4.1,4.2c0,0-0.1,0-0.1,0h-0.2
	c-1.1-0.1-2.2-0.6-3-1.4c-0.8-0.8-1.2-1.9-1-3C313.5,42.1,309.9,34.8,302.6,28.2z M327.1,115.7c4.4,7.5,6.9,16,7.3,24.6
	c0.4,7.9-1.6,15.7-5.8,22.4c-2.5,4.1-5.7,7.8-9.5,10.8c-4.9,3.8-10.2,6.9-15.8,9.4c-6.6,3-15,5.4-25.4,7.2
	c-11.8,1.9-23.7,2.8-35.7,2.7c-4.7,0-9.5-0.1-14.4-0.4c-1.1,0-2.2-0.5-3-1.3c-0.8-0.8-1.2-2-1-3.1v-133c0-2.3,1.9-4.2,4.2-4.2
	c2.3,0,4.2,1.9,4.2,4.2c0,0,0,0,0,0V184c12.5,0.5,25.1,0.1,37.6-1.3c10.9-1.3,19.7-3.4,26.4-6.1c5.6-2.1,11-5,15.9-8.5
	c3.6-2.7,6.7-5.9,9.2-9.7c3.3-5.5,4.8-11.8,4.4-18.1c-0.4-7.1-2.5-14-6.2-20.1c-2.7-4.8-6.2-9.1-10.4-12.6
	c-3.8-3.1-7.2-4.7-10.2-4.9c-2.3,0-4.2-1.8-4.2-4.1c0,0,0,0,0-0.1c0-0.7,0.2-1.5,0.6-2.1c0.4-0.7,0.9-1.2,1.5-1.7
	c0.6-0.4,1.3-0.7,2.1-0.7h0.2c3.4,0.1,6.7,1,9.6,2.8c3.6,2.1,6.9,4.6,9.7,7.6C321.9,107.8,324.7,111.6,327.1,115.7z M313.4,59.8
	c0-2.7,1.4-4,4.2-4c1.5-0.1,3,0.7,3.6,2.1c0.4,0.7,0.6,1.5,0.5,2.3c-0.3,9.7-4.8,18.3-13.5,25.6c-8.7,7.4-20.6,12.6-35.8,15.7h-0.9
	c-2.4,0-3.8-1.1-4.2-3.3c-0.3-1.1-0.1-2.3,0.6-3.3c0.6-1,1.6-1.6,2.8-1.8c12.8-2.7,23.1-7,30.7-12.9
	C309.1,74.3,313.1,67.5,313.4,59.8L313.4,59.8z"/>
<g>
	<g>
		<path class="st8" d="M90.1,328.4c2.3,1.5,4.1,3.4,5.5,5.5l-0.4,0.1c0.4,0.8,0.8,1.6,1.1,2.4l0.5-0.2c0.2,0.4,0.3,0.7,0.4,1.1
			l-0.6,0.2c0.6,1.9,0.8,3.9,0.7,5.9l0.8-0.2c0,3.1-0.9,6.3-2.7,9.1c-5.1,8.1-15.8,10.5-23.9,5.3c-0.1-0.1-0.3-0.2-0.4-0.2l0,0
			c-2-1.3-3.6-3-4.8-4.9c-1.1-1.7-1.9-3.5-2.3-5.4c-0.1-0.4-0.2-0.8-0.2-1.2c-0.2-0.9-0.2-1.8-0.3-2.7c-0.1-3.3,0.8-6.6,2.7-9.5
			c5-7.9,15.5-10.4,23.5-5.6l0,0C89.8,328.2,89.9,328.3,90.1,328.4z"/>
		<path class="st9" d="M98.1,342c0,0.2,0,0.3,0,0.4v0c-0.1,2.8-0.8,5.4-2.1,7.7c-0.4,0.8-0.9,1.5-1.4,2.3c-0.2,0.3-0.5,0.6-0.7,0.9
			c-1.3,1.5-2.8,2.8-4.6,3.7c-2.5,1.4-5.4,2.2-8.5,2.2c-9.4,0-17.1-7.5-17.3-16.8v0c0-0.2,0-0.3,0-0.4c0-2.3,0.4-4.5,1.2-6.5
			c0.7-1.9,1.8-3.6,3.1-5c0.3-0.3,0.5-0.6,0.8-0.9c0.6-0.6,1.3-1.2,2-1.7c2.8-2,6.3-3.2,10.1-3.2C90.3,324.7,98.1,332.5,98.1,342z"
			/>
		<path class="st8" d="M81,356.2c-7.8,0-14.1-6.3-14.1-14.1c0-7.8,6.3-14.1,14.1-14.1c7.8,0,14.1,6.3,14.1,14.1
			C95.1,349.8,88.8,356.2,81,356.2z M81,328.9c-7.2,0-13.1,5.9-13.1,13.1c0,7.2,5.9,13.1,13.1,13.1c7.2,0,13.1-5.9,13.1-13.1
			C94.2,334.8,88.3,328.9,81,328.9z"/>
		<path class="st10" d="M94.3,353.8c-1.2,1.5-2.7,2.9-4.4,3.9l-0.6-0.6c1.7-1,3.3-2.2,4.6-3.7L94.3,353.8z"/>
		<path class="st11" d="M70.4,332.8c-1.3,1.5-2.3,3.3-2.9,5.2l-2.5-2.2l-0.3-0.3c0.7-1.9,1.8-3.6,3.1-5l0.5,0.4L70.4,332.8z"/>
		<path class="st11" d="M93.8,353.4c-1.3,1.5-2.8,2.8-4.6,3.7l-2.5-2.2c1.9-0.8,3.5-2,4.8-3.5L93.8,353.4z"/>
		<path class="st10" d="M96.4,350.5c-0.4,0.8-0.8,1.6-1.4,2.3l-0.4-0.4c0.5-0.7,1-1.5,1.4-2.3L96.4,350.5z"/>
		<path class="st11" d="M73.3,330.3c-0.8,0.5-1.5,1.1-2.1,1.7l-2-1.8l-0.5-0.4c0.6-0.6,1.3-1.2,2-1.7l0.6,0.5L73.3,330.3z"/>
		<path class="st11" d="M96,350.2c-0.4,0.8-0.9,1.5-1.4,2.3l-2.3-2c0.5-0.7,1-1.5,1.4-2.3L96,350.2z"/>
		<path class="st12" d="M87.7,345c0.1-0.8-0.2-1.5-0.8-2c-0.3-0.2-0.6-0.4-0.9-0.7c0,0,0.1,0,0.1,0c1.9-0.5,2.3-3.1,1.3-4.3
			c-0.4-0.5-0.9-0.8-1.5-1.1c-0.4-0.2-0.8-0.4-1.2-0.5c0.2-0.8,0.4-1.8,0.6-2.6l-1.6-0.4c-0.2,0.8-0.4,1.8-0.6,2.6
			c-0.4-0.1-0.9-0.2-1.3-0.3c0.2-0.7,0.4-1.8,0.6-2.6l-1.6-0.4c-0.2,0.8-0.4,1.9-0.6,2.6c-1.1-0.3-2.1-0.5-3.2-0.8
			c-0.1,0.6-0.3,1.1-0.4,1.7c0.2,0.1,0.4,0.1,0.6,0.2c0.2,0,0.4,0.1,0.6,0.1c0.5,0.2,0.8,0.5,0.6,1.1c-0.5,2.3-1.1,4.5-1.6,6.8
			c-0.1,0.5-0.4,0.6-0.9,0.5c-0.4-0.1-0.7-0.2-1.1-0.2c-0.3,0.6-0.5,1.2-0.8,1.8c1.1,0.3,2.1,0.5,3.2,0.8c-0.2,0.8-0.4,1.8-0.6,2.7
			l1.6,0.4c0.2-0.9,0.4-1.9,0.6-2.7c0.4,0.1,0.8,0.2,1.3,0.3c-0.2,0.8-0.4,1.8-0.6,2.6l1.6,0.4c0.2-0.9,0.4-1.9,0.6-2.6
			c0.1,0,0.1,0,0.1,0c0.8,0.1,1.6,0.2,2.4,0.1c1,0,1.9-0.4,2.5-1.3C87.3,346.6,87.6,345.8,87.7,345z M81.4,337.5c1,0.2,2,0.4,2.8,1
			c0.5,0.4,0.7,1,0.6,1.5c-0.2,0.6-0.6,1-1.3,1c-0.9,0.1-1.8-0.1-2.8-0.4C80.9,339.6,81.2,338.6,81.4,337.5z M83.1,346.2
			c-1,0.2-1.9,0-2.8-0.2c-0.3-0.1-0.5-0.1-0.8-0.2c0.3-1.2,0.6-2.3,0.8-3.5c1.2,0.3,2.4,0.5,3.4,1.2c0.5,0.4,0.8,0.9,0.6,1.6
			C84.2,345.7,83.8,346.1,83.1,346.2z"/>
	</g>
	<g>
		<path class="st13" d="M221.9,326.1c2.3,1.5,4.1,3.4,5.5,5.5l-0.4,0.1c0.4,0.8,0.8,1.6,1.1,2.4l0.5-0.2c0.2,0.4,0.3,0.7,0.4,1.1
			l-0.6,0.2c0.6,1.9,0.8,3.9,0.7,5.9l0.8-0.2c0,3.1-0.9,6.3-2.7,9.1c-5.1,8.1-15.8,10.5-23.9,5.3c-0.1-0.1-0.3-0.2-0.4-0.2l0,0
			c-2-1.3-3.6-3-4.8-4.9c-1.1-1.7-1.9-3.5-2.3-5.4c-0.1-0.4-0.2-0.8-0.2-1.2c-0.2-0.9-0.2-1.8-0.3-2.7c-0.1-3.3,0.8-6.6,2.7-9.5
			c5-7.9,15.5-10.4,23.5-5.6l0,0C221.6,325.9,221.7,326,221.9,326.1z"/>
		<path class="st14" d="M229.9,339.8c0,0.2,0,0.3,0,0.4v0c-0.1,2.8-0.8,5.4-2.1,7.7c-0.4,0.8-0.9,1.5-1.4,2.3
			c-0.2,0.3-0.5,0.6-0.7,0.9c-1.3,1.5-2.8,2.8-4.6,3.7c-2.5,1.4-5.4,2.2-8.5,2.2c-9.4,0-17.1-7.5-17.3-16.8v0c0-0.2,0-0.3,0-0.4
			c0-2.3,0.4-4.5,1.2-6.5c0.7-1.9,1.8-3.6,3.1-5c0.3-0.3,0.5-0.6,0.8-0.9c0.6-0.6,1.3-1.2,2-1.7c2.8-2,6.3-3.2,10.1-3.2
			C222.2,322.5,229.9,330.2,229.9,339.8z"/>
		<path class="st13" d="M212.8,353.9c-7.8,0-14.1-6.3-14.1-14.1c0-7.8,6.3-14.1,14.1-14.1c7.8,0,14.1,6.3,14.1,14.1
			C226.9,347.6,220.6,353.9,212.8,353.9z M212.8,326.6c-7.2,0-13.1,5.9-13.1,13.1c0,7.2,5.9,13.1,13.1,13.1
			c7.2,0,13.1-5.9,13.1-13.1C226,332.5,220.1,326.6,212.8,326.6z"/>
		<path class="st10" d="M226.1,351.5c-1.2,1.5-2.7,2.9-4.4,3.9l-0.6-0.6c1.7-1,3.3-2.2,4.6-3.7L226.1,351.5z"/>
		<path class="st15" d="M202.2,330.5c-1.3,1.5-2.3,3.3-2.9,5.2l-2.5-2.2l-0.3-0.3c0.7-1.9,1.8-3.6,3.1-5l0.5,0.4L202.2,330.5z"/>
		<path class="st15" d="M225.7,351.1c-1.3,1.5-2.8,2.8-4.6,3.7l-2.5-2.2c1.9-0.8,3.5-2,4.8-3.5L225.7,351.1z"/>
		<path class="st10" d="M228.2,348.3c-0.4,0.8-0.8,1.6-1.4,2.3l-0.4-0.4c0.5-0.7,1-1.5,1.4-2.3L228.2,348.3z"/>
		<path class="st15" d="M205.1,328c-0.8,0.5-1.5,1.1-2.1,1.7l-2-1.8l-0.5-0.4c0.6-0.6,1.3-1.2,2-1.7l0.6,0.5L205.1,328z"/>
		<path class="st15" d="M227.8,348c-0.4,0.8-0.9,1.5-1.4,2.3l-2.3-2c0.5-0.7,1-1.5,1.4-2.3L227.8,348z"/>
		<path class="st12" d="M219.4,340.2c-0.3-0.7-0.7-1.2-1.5-1.5c-0.3-0.1-0.7-0.2-1.1-0.2c0,0,0.1-0.1,0.1-0.1
			c1.5-1.2,0.8-3.6-0.6-4.3c-0.6-0.3-1.1-0.4-1.7-0.4c-0.4,0-0.8,0-1.3,0c-0.2-0.7-0.3-1.7-0.5-2.5l-1.5,0.3
			c0.2,0.8,0.4,1.8,0.5,2.5c-0.4,0.1-0.8,0.2-1.2,0.3c-0.1-0.7-0.3-1.7-0.5-2.5l-1.5,0.3c0.2,0.8,0.4,1.8,0.5,2.5
			c-1,0.2-2,0.4-3.1,0.6c0.1,0.6,0.2,1.1,0.3,1.6c0.2,0,0.4-0.1,0.6-0.1c0.2,0,0.4-0.1,0.6-0.1c0.5-0.1,0.9,0.2,1,0.7
			c0.4,2.2,0.9,4.4,1.3,6.5c0.1,0.5-0.1,0.7-0.5,0.8c-0.3,0.1-0.7,0.1-1,0.2c0,0.6,0,1.2,0.1,1.9c1-0.2,2-0.4,3.1-0.6
			c0.2,0.8,0.4,1.8,0.5,2.6l1.5-0.3c-0.2-0.8-0.4-1.8-0.5-2.6c0.4-0.1,0.8-0.1,1.2-0.2c0.2,0.8,0.3,1.7,0.5,2.5l1.5-0.3
			c-0.2-0.8-0.4-1.8-0.5-2.5c0,0,0.1,0,0.1-0.1c0.7-0.3,1.4-0.5,2.1-0.8c0.9-0.4,1.5-1.1,1.7-2.1
			C219.7,341.7,219.6,340.9,219.4,340.2z M211,336.1c0.9-0.2,1.9-0.5,2.8-0.3c0.6,0.1,1,0.5,1.1,1.1c0.1,0.6-0.2,1.1-0.7,1.4
			c-0.8,0.4-1.6,0.6-2.6,0.8C211.4,338.1,211.2,337.2,211,336.1z M215.9,343c-0.8,0.6-1.6,0.7-2.5,0.9c-0.2,0.1-0.5,0.1-0.8,0.1
			c-0.2-1.1-0.4-2.2-0.7-3.4c1.2-0.2,2.3-0.6,3.5-0.3c0.6,0.1,1,0.5,1.2,1.1C216.7,342.2,216.4,342.6,215.9,343z"/>
	</g>
	<g>
		<path class="st16" d="M133.9,327.6c2.3,1.5,4.1,3.4,5.5,5.5l-0.4,0.1c0.4,0.8,0.8,1.6,1.1,2.4l0.5-0.2c0.2,0.4,0.3,0.7,0.4,1.1
			l-0.6,0.2c0.6,1.9,0.8,3.9,0.7,5.9l0.8-0.2c0,3.1-0.9,6.3-2.7,9.1c-5.1,8.1-15.8,10.5-23.9,5.3c-0.1-0.1-0.3-0.2-0.4-0.2l0,0
			c-2-1.3-3.6-3-4.8-4.9c-1.1-1.7-1.9-3.5-2.3-5.4c-0.1-0.4-0.2-0.8-0.2-1.2c-0.2-0.9-0.2-1.8-0.3-2.7c-0.1-3.3,0.8-6.6,2.7-9.5
			c5-7.9,15.5-10.4,23.5-5.6l0,0C133.7,327.4,133.8,327.5,133.9,327.6z"/>
		<path class="st17" d="M141.9,341.2c0,0.2,0,0.3,0,0.4v0c-0.1,2.8-0.8,5.4-2.1,7.7c-0.4,0.8-0.9,1.5-1.4,2.3
			c-0.2,0.3-0.5,0.6-0.7,0.9c-1.3,1.5-2.8,2.8-4.6,3.7c-2.5,1.4-5.4,2.2-8.5,2.2c-9.4,0-17.1-7.5-17.3-16.8v0c0-0.2,0-0.3,0-0.4
			c0-2.3,0.4-4.5,1.2-6.5c0.7-1.9,1.8-3.6,3.1-5c0.3-0.3,0.5-0.6,0.8-0.9c0.6-0.6,1.3-1.2,2-1.7c2.8-2,6.3-3.2,10.1-3.2
			C134.2,323.9,141.9,331.7,141.9,341.2z"/>
		<path class="st16" d="M124.9,355.4c-7.8,0-14.1-6.3-14.1-14.1c0-7.8,6.3-14.1,14.1-14.1c7.8,0,14.1,6.3,14.1,14.1
			C139,349,132.6,355.4,124.9,355.4z M124.9,328.1c-7.2,0-13.1,5.9-13.1,13.1c0,7.2,5.9,13.1,13.1,13.1c7.2,0,13.1-5.9,13.1-13.1
			C138,334,132.1,328.1,124.9,328.1z"/>
		<path class="st10" d="M138.1,353c-1.2,1.5-2.7,2.9-4.4,3.9l-0.6-0.6c1.7-1,3.3-2.2,4.6-3.7L138.1,353z"/>
		<path class="st11" d="M114.2,332c-1.3,1.5-2.3,3.3-2.9,5.2l-2.5-2.2l-0.3-0.3c0.7-1.9,1.8-3.6,3.1-5l0.5,0.4L114.2,332z"/>
		<path class="st11" d="M137.7,352.6c-1.3,1.5-2.8,2.8-4.6,3.7l-2.5-2.2c1.9-0.8,3.5-2,4.8-3.5L137.7,352.6z"/>
		<path class="st10" d="M140.2,349.7c-0.4,0.8-0.8,1.6-1.4,2.3l-0.4-0.4c0.5-0.7,1-1.5,1.4-2.3L140.2,349.7z"/>
		<path class="st11" d="M117.1,329.5c-0.8,0.5-1.5,1.1-2.1,1.7l-2-1.8l-0.5-0.4c0.6-0.6,1.3-1.2,2-1.7l0.6,0.5L117.1,329.5z"/>
		<path class="st11" d="M139.9,349.5c-0.4,0.8-0.9,1.5-1.4,2.3l-2.3-2c0.5-0.7,1-1.5,1.4-2.3L139.9,349.5z"/>
		<g>
			<g>
				<g>
					<polygon class="st12" points="125.4,345.5 125.4,349.8 130.8,342.2 					"/>
				</g>
				<g>
					<polygon class="st12" points="130.6,340.8 125.4,332.3 125.4,338.5 					"/>
					<polygon class="st12" points="125.4,339 125.4,344.3 130.5,341.3 					"/>
				</g>
				<g>
					<polygon class="st12" points="119.8,340.8 125,332.3 125,338.5 					"/>
					<polygon class="st12" points="125,339 125,344.3 119.8,341.3 					"/>
				</g>
				<g>
					<polygon class="st12" points="125,345.5 125,349.8 119.6,342.2 					"/>
				</g>
			</g>
		</g>
	</g>
	<g>
		<path class="st18" d="M178.4,327.7c2.3,1.5,4.1,3.4,5.5,5.5l-0.4,0.1c0.4,0.8,0.8,1.6,1.1,2.4l0.5-0.2c0.2,0.4,0.3,0.7,0.4,1.1
			l-0.6,0.2c0.6,1.9,0.8,3.9,0.7,5.9l0.8-0.2c0,3.1-0.9,6.3-2.7,9.1c-5.1,8.1-15.8,10.5-23.9,5.3c-0.1-0.1-0.3-0.2-0.4-0.2l0,0
			c-2-1.3-3.6-3-4.8-4.9c-1.1-1.7-1.9-3.5-2.3-5.4c-0.1-0.4-0.2-0.8-0.2-1.2c-0.2-0.9-0.2-1.8-0.3-2.7c-0.1-3.3,0.8-6.6,2.7-9.5
			c5-7.9,15.5-10.4,23.5-5.6l0,0C178.2,327.5,178.3,327.6,178.4,327.7z"/>
		<linearGradient id="SVGID_2_" gradientUnits="userSpaceOnUse" x1="151.8005" y1="341.3681" x2="186.4384" y2="341.3681">
			<stop  offset="0" style="stop-color:#11AAE2"/>
			<stop  offset="0.59" style="stop-color:#0880B7"/>
			<stop  offset="1" style="stop-color:#016197"/>
		</linearGradient>
		<path class="st19" d="M186.4,341.4c0,0.2,0,0.3,0,0.4v0c-0.1,2.8-0.8,5.4-2.1,7.7c-0.4,0.8-0.9,1.5-1.4,2.3
			c-0.2,0.3-0.5,0.6-0.7,0.9c-1.3,1.5-2.8,2.8-4.6,3.7c-2.5,1.4-5.4,2.2-8.5,2.2c-9.4,0-17.1-7.5-17.3-16.8v0c0-0.2,0-0.3,0-0.4
			c0-2.3,0.4-4.5,1.2-6.5c0.7-1.9,1.8-3.6,3.1-5c0.3-0.3,0.5-0.6,0.8-0.9c0.6-0.6,1.3-1.2,2-1.7c2.8-2,6.3-3.2,10.1-3.2
			C178.7,324,186.4,331.8,186.4,341.4z"/>
		<path class="st18" d="M169.4,355.5c-7.8,0-14.1-6.3-14.1-14.1c0-7.8,6.3-14.1,14.1-14.1c7.8,0,14.1,6.3,14.1,14.1
			C183.5,349.1,177.1,355.5,169.4,355.5z M169.4,328.2c-7.2,0-13.1,5.9-13.1,13.1c0,7.2,5.9,13.1,13.1,13.1
			c7.2,0,13.1-5.9,13.1-13.1C182.5,334.1,176.6,328.2,169.4,328.2z"/>
		<path class="st10" d="M182.6,353.1c-1.2,1.5-2.7,2.9-4.4,3.9l-0.6-0.6c1.7-1,3.3-2.2,4.6-3.7L182.6,353.1z"/>
		<path class="st11" d="M158.7,332.1c-1.3,1.5-2.3,3.3-2.9,5.2l-2.5-2.2l-0.3-0.3c0.7-1.9,1.8-3.6,3.1-5l0.5,0.4L158.7,332.1z"/>
		<path class="st11" d="M182.2,352.7c-1.3,1.5-2.8,2.8-4.6,3.7l-2.5-2.2c1.9-0.8,3.5-2,4.8-3.5L182.2,352.7z"/>
		<path class="st10" d="M184.7,349.8c-0.4,0.8-0.8,1.6-1.4,2.3l-0.4-0.4c0.5-0.7,1-1.5,1.4-2.3L184.7,349.8z"/>
		<path class="st11" d="M161.6,329.6c-0.8,0.5-1.5,1.1-2.1,1.7l-2-1.8L157,329c0.6-0.6,1.3-1.2,2-1.7l0.6,0.5L161.6,329.6z"/>
		<path class="st11" d="M184.4,349.6c-0.4,0.8-0.9,1.5-1.4,2.3l-2.3-2c0.5-0.7,1-1.5,1.4-2.3L184.4,349.6z"/>
		<path class="st12" d="M171.2,332.7c-1.2,0.7-1.9,1.9-1.9,3.2c0,0.7,0.3,1.4,0.6,2c0.3,0.5,0.4,1.5-0.5,2c-0.7,0.4-1.6,0.1-2-0.5
			c-0.4-0.5-0.9-1.1-1.5-1.5c-1.2-0.7-2.5-0.7-3.7,0s-1.9,1.9-1.9,3.2s0.7,2.5,1.9,3.2c1.2,0.7,2.5,0.7,3.7,0
			c0.6-0.3,1.1-0.9,1.4-1.5c0.3-0.5,1-1.1,2-0.5c0.7,0.4,0.9,1.3,0.5,2c-0.3,0.6-0.5,1.3-0.5,2c0,1.3,0.7,2.5,1.9,3.2
			c1.2,0.7,2.5,0.7,3.7,0s1.9-1.9,1.9-3.2c0-1.3-0.7-2.5-1.9-3.2c-0.6-0.3-1.3-0.5-2.1-0.5c-0.6,0-1.4-0.4-1.4-1.4
			c0-0.8,0.6-1.4,1.4-1.4c0.7,0,1.4-0.1,2.1-0.5c1.2-0.7,1.9-1.9,1.9-3.2s-0.7-2.5-1.9-3.2c-0.5-0.3-1.2-0.5-1.9-0.5
			C172.4,332.2,171.7,332.4,171.2,332.7"/>
	</g>
	<g>
		<path class="st20" d="M306.8,326.7c2.3,1.5,4.1,3.4,5.5,5.5l-0.4,0.1c0.4,0.8,0.8,1.6,1.1,2.4l0.5-0.2c0.2,0.4,0.3,0.7,0.4,1.1
			l-0.6,0.2c0.6,1.9,0.8,3.9,0.7,5.9l0.8-0.2c0,3.1-0.9,6.3-2.7,9.1c-5.1,8.1-15.8,10.5-23.9,5.3c-0.1-0.1-0.3-0.2-0.4-0.2l0,0
			c-2-1.3-3.6-3-4.8-4.9c-1.1-1.7-1.9-3.5-2.3-5.4c-0.1-0.4-0.2-0.8-0.2-1.2c-0.2-0.9-0.2-1.8-0.3-2.7c-0.1-3.3,0.8-6.6,2.7-9.5
			c5-7.9,15.5-10.4,23.5-5.6l0,0C306.5,326.5,306.6,326.6,306.8,326.7z"/>
		<path class="st21" d="M314.8,340.4c0,0.2,0,0.3,0,0.4v0c-0.1,2.8-0.8,5.4-2.1,7.7c-0.4,0.8-0.9,1.5-1.4,2.3
			c-0.2,0.3-0.5,0.6-0.7,0.9c-1.3,1.5-2.8,2.8-4.6,3.7c-2.5,1.4-5.4,2.2-8.5,2.2c-9.4,0-17.1-7.5-17.3-16.8v0c0-0.2,0-0.3,0-0.4
			c0-2.3,0.4-4.5,1.2-6.5c0.7-1.9,1.8-3.6,3.1-5c0.3-0.3,0.5-0.6,0.8-0.9c0.6-0.6,1.3-1.2,2-1.7c2.8-2,6.3-3.2,10.1-3.2
			C307,323.1,314.8,330.8,314.8,340.4z"/>
		<path class="st20" d="M297.7,354.5c-7.8,0-14.1-6.3-14.1-14.1c0-7.8,6.3-14.1,14.1-14.1c7.8,0,14.1,6.3,14.1,14.1
			C311.8,348.2,305.5,354.5,297.7,354.5z M297.7,327.3c-7.2,0-13.1,5.9-13.1,13.1c0,7.2,5.9,13.1,13.1,13.1
			c7.2,0,13.1-5.9,13.1-13.1C310.9,333.2,305,327.3,297.7,327.3z"/>
		<path class="st10" d="M311,352.2c-1.2,1.5-2.7,2.9-4.4,3.9l-0.6-0.6c1.7-1,3.3-2.2,4.6-3.7L311,352.2z"/>
		<path class="st22" d="M287.1,331.2c-1.3,1.5-2.3,3.3-2.9,5.2l-2.5-2.2l-0.3-0.3c0.7-1.9,1.8-3.6,3.1-5l0.5,0.4L287.1,331.2z"/>
		<path class="st22" d="M310.6,351.8c-1.3,1.5-2.8,2.8-4.6,3.7l-2.5-2.2c1.9-0.8,3.5-2,4.8-3.5L310.6,351.8z"/>
		<path class="st10" d="M313.1,348.9c-0.4,0.8-0.8,1.6-1.4,2.3l-0.4-0.4c0.5-0.7,1-1.5,1.4-2.3L313.1,348.9z"/>
		<path class="st22" d="M290,328.6c-0.8,0.5-1.5,1.1-2.1,1.7l-2-1.8l-0.5-0.4c0.6-0.6,1.3-1.2,2-1.7l0.6,0.5L290,328.6z"/>
		<path class="st22" d="M312.7,348.6c-0.4,0.8-0.9,1.5-1.4,2.3l-2.3-2c0.5-0.7,1-1.5,1.4-2.3L312.7,348.6z"/>
		<g>
			<path class="st23" d="M303.6,345"/>
			<path class="st12" d="M303.5,344.5L303.5,344.5L303.5,344.5l-1.7-7.8c0,0,0,0,0-0.1c0,0,0,0,0,0c0,0,0,0,0,0l-3.5-4.8
				c-0.1-0.1-0.1-0.1-0.2-0.1s-0.2,0-0.2,0.1l-3.5,4.8c0,0,0,0.1-0.1,0.1l-1.7,7.8c0,0,0,0.1,0,0.1c0,0,0,0.1,0,0.1
				c0,0,0.1,0.1,0.1,0.1l5.2,3.3c0,0,0.1,0,0.2,0l0,0c0.1,0,0.1,0,0.2,0l5.2-3.3c0,0,0.1-0.1,0.1-0.1c0,0,0,0,0-0.1l0,0l0,0
				C303.5,344.6,303.5,344.5,303.5,344.5z M302.6,342.8l-1.7-3l0.6-2L302.6,342.8z M298.3,332.7l2.9,4l-0.7,2.3l-2.2-3.9V332.7z
				 M298,335.8l2.2,4l-1.4,4.4h-1.7l-1.4-4.4L298,335.8z M297.7,332.7v2.5l-2.2,3.9l-0.7-2.3L297.7,332.7z M294.5,337.8l0.6,2
				l-1.7,3L294.5,337.8z M295.4,340.5l1.2,3.8h-3.3L295.4,340.5z M293.7,344.8h3l0.7,2.4L293.7,344.8z M298,346.9l-0.7-2.1h1.3
				L298,346.9z M298.5,347.2l0.7-2.4h3L298.5,347.2z M299.4,344.3l1.2-3.8l2.1,3.8H299.4z"/>
			<path class="st23" d="M302.1,335.9"/>
			<path class="st23" d="M297.4,348.2"/>
			<path class="st23" d="M304.1,345"/>
			<path class="st23" d="M302.1,335.9"/>
			<path class="st23" d="M293.9,335.9"/>
			<path class="st23" d="M291.9,345"/>
			<path class="st23" d="M297.4,348.2"/>
			<path class="st23" d="M293.9,335.9"/>
			<path class="st23" d="M300.6,336.6"/>
			<path class="st23" d="M296.9,348.2"/>
			<path class="st23" d="M302.4,344.7"/>
			<path class="st23" d="M300.6,336.6"/>
			<path class="st23" d="M293.2,336.6"/>
			<path class="st23" d="M296.9,348.2"/>
			<path class="st23" d="M293.2,336.6"/>
		</g>
	</g>
	<g>
		<path class="st24" d="M263.3,328.3c2.3,1.5,4.1,3.4,5.5,5.5l-0.4,0.1c0.4,0.8,0.8,1.6,1.1,2.4l0.5-0.2c0.2,0.4,0.3,0.7,0.4,1.1
			l-0.6,0.2c0.6,1.9,0.8,3.9,0.7,5.9l0.8-0.2c0,3.1-0.9,6.3-2.7,9.1c-5.1,8.1-15.8,10.5-23.9,5.3c-0.1-0.1-0.3-0.2-0.4-0.2l0,0
			c-2-1.3-3.6-3-4.8-4.9c-1.1-1.7-1.9-3.5-2.3-5.4c-0.1-0.4-0.2-0.8-0.2-1.2c-0.2-0.9-0.2-1.8-0.3-2.7c-0.1-3.3,0.8-6.6,2.7-9.5
			c5-7.9,15.5-10.4,23.5-5.6l0,0C263.1,328.1,263.2,328.2,263.3,328.3z"/>
		<path class="st25" d="M271.3,342c0,0.2,0,0.3,0,0.4v0c-0.1,2.8-0.8,5.4-2.1,7.7c-0.4,0.8-0.9,1.5-1.4,2.3
			c-0.2,0.3-0.5,0.6-0.7,0.9c-1.3,1.5-2.8,2.8-4.6,3.7c-2.5,1.4-5.4,2.2-8.5,2.2c-9.4,0-17.1-7.5-17.3-16.8v0c0-0.2,0-0.3,0-0.4
			c0-2.3,0.4-4.5,1.2-6.5c0.7-1.9,1.8-3.6,3.1-5c0.3-0.3,0.5-0.6,0.8-0.9c0.6-0.6,1.3-1.2,2-1.7c2.8-2,6.3-3.2,10.1-3.2
			C263.6,324.7,271.3,332.4,271.3,342z"/>
		<path class="st24" d="M254.3,356.1c-7.8,0-14.1-6.3-14.1-14.1c0-7.8,6.3-14.1,14.1-14.1c7.8,0,14.1,6.3,14.1,14.1
			C268.4,349.8,262,356.1,254.3,356.1z M254.3,328.9c-7.2,0-13.1,5.9-13.1,13.1c0,7.2,5.9,13.1,13.1,13.1c7.2,0,13.1-5.9,13.1-13.1
			C267.4,334.7,261.5,328.9,254.3,328.9z"/>
		<path class="st10" d="M267.5,353.7c-1.2,1.5-2.7,2.9-4.4,3.9l-0.6-0.6c1.7-1,3.3-2.2,4.6-3.7L267.5,353.7z"/>
		<path class="st11" d="M243.6,332.7c-1.3,1.5-2.3,3.3-2.9,5.2l-2.5-2.2l-0.3-0.3c0.7-1.9,1.8-3.6,3.1-5l0.5,0.4L243.6,332.7z"/>
		<path class="st11" d="M267.1,353.4c-1.3,1.5-2.8,2.8-4.6,3.7l-2.5-2.2c1.9-0.8,3.5-2,4.8-3.5L267.1,353.4z"/>
		<path class="st10" d="M269.6,350.5c-0.4,0.8-0.8,1.6-1.4,2.3l-0.4-0.4c0.5-0.7,1-1.5,1.4-2.3L269.6,350.5z"/>
		<path class="st11" d="M246.5,330.2c-0.8,0.5-1.5,1.1-2.1,1.7l-2-1.8l-0.5-0.4c0.6-0.6,1.3-1.2,2-1.7l0.6,0.5L246.5,330.2z"/>
		<path class="st11" d="M269.3,350.2c-0.4,0.8-0.9,1.5-1.4,2.3l-2.3-2c0.5-0.7,1-1.5,1.4-2.3L269.3,350.2z"/>
		<polygon class="st26" points="254.5,342.6 256.6,341.8 257.1,339.8 257.1,339.7 255,340.5 256.5,334.8 252.2,334.8 250.2,342.2 
			248.6,342.9 248,344.9 249.7,344.3 248.5,348.7 260,348.7 260.7,346 253.6,346 		"/>
	</g>
	<g>
		<path class="st27" d="M46.2,328.6c2.3,1.5,4.1,3.4,5.5,5.5l-0.4,0.1c0.4,0.8,0.8,1.6,1.1,2.4l0.5-0.2c0.2,0.4,0.3,0.7,0.4,1.1
			l-0.6,0.2c0.6,1.9,0.8,3.9,0.7,5.9l0.8-0.2c0,3.1-0.9,6.3-2.7,9.1c-5.1,8.1-15.8,10.5-23.9,5.3c-0.1-0.1-0.3-0.2-0.4-0.2l0,0
			c-2-1.3-3.6-3-4.8-4.9c-1.1-1.7-1.9-3.5-2.3-5.4c-0.1-0.4-0.2-0.8-0.2-1.2c-0.2-0.9-0.2-1.8-0.3-2.7c-0.1-3.3,0.8-6.6,2.7-9.5
			c5-7.9,15.5-10.4,23.5-5.6l0,0C46,328.4,46.1,328.5,46.2,328.6z"/>
		<path class="st28" d="M54.3,342.3c0,0.2,0,0.3,0,0.4v0c-0.1,2.8-0.8,5.4-2.1,7.7c-0.4,0.8-0.9,1.5-1.4,2.3
			c-0.2,0.3-0.5,0.6-0.7,0.9c-1.3,1.5-2.8,2.8-4.6,3.7c-2.5,1.4-5.4,2.2-8.5,2.2c-9.4,0-17.1-7.5-17.3-16.8v0c0-0.2,0-0.3,0-0.4
			c0-2.3,0.4-4.5,1.2-6.5c0.7-1.9,1.8-3.6,3.1-5c0.3-0.3,0.5-0.6,0.8-0.9c0.6-0.6,1.3-1.2,2-1.7c2.8-2,6.3-3.2,10.1-3.2
			C46.5,325,54.3,332.7,54.3,342.3z"/>
		<path class="st29" d="M37.2,356.4c-7.8,0-14.1-6.3-14.1-14.1c0-7.8,6.3-14.1,14.1-14.1c7.8,0,14.1,6.3,14.1,14.1
			C51.3,350.1,45,356.4,37.2,356.4z M37.2,329.2c-7.2,0-13.1,5.9-13.1,13.1c0,7.2,5.9,13.1,13.1,13.1c7.2,0,13.1-5.9,13.1-13.1
			C50.3,335.1,44.4,329.2,37.2,329.2z"/>
		<path class="st10" d="M50.5,354.1c-1.2,1.5-2.7,2.9-4.4,3.9l-0.6-0.6c1.7-1,3.3-2.2,4.6-3.7L50.5,354.1z"/>
		<path class="st11" d="M26.5,333.1c-1.3,1.5-2.3,3.3-2.9,5.2l-2.5-2.2l-0.3-0.3c0.7-1.9,1.8-3.6,3.1-5l0.5,0.4L26.5,333.1z"/>
		<path class="st11" d="M50,353.7c-1.3,1.5-2.8,2.8-4.6,3.7l-2.5-2.2c1.9-0.8,3.5-2,4.8-3.5L50,353.7z"/>
		<path class="st10" d="M52.5,350.8c-0.4,0.8-0.8,1.6-1.4,2.3l-0.4-0.4c0.5-0.7,1-1.5,1.4-2.3L52.5,350.8z"/>
		<path class="st11" d="M29.5,330.5c-0.8,0.5-1.5,1.1-2.1,1.7l-2-1.8l-0.5-0.4c0.6-0.6,1.3-1.2,2-1.7l0.6,0.5L29.5,330.5z"/>
		<path class="st11" d="M52.2,350.5c-0.4,0.8-0.9,1.5-1.4,2.3l-2.3-2c0.5-0.7,1-1.5,1.4-2.3L52.2,350.5z"/>
		<g>
			<path class="st12" d="M34.7,340.9v0.2c0,0.5-0.2,0.9-0.5,1v0c0.4,0.2,0.6,0.5,0.6,1.1v0.4c0,0.8-0.4,1.2-1.2,1.2h-1.3v-5.1h1.2
				C34.4,339.7,34.7,340.1,34.7,340.9z M33.1,340.4v1.4h0.3c0.3,0,0.5-0.1,0.5-0.5V341c0-0.4-0.1-0.5-0.4-0.5H33.1z M33.1,342.5v1.6
				h0.5c0.3,0,0.4-0.1,0.4-0.5v-0.4c0-0.5-0.2-0.6-0.5-0.6H33.1z"/>
			<path class="st12" d="M36,339.7h0.8v4.4h1.3v0.7H36V339.7z"/>
			<path class="st12" d="M40,339.7v3.9c0,0.4,0.2,0.5,0.4,0.5s0.4-0.1,0.4-0.5v-3.9h0.8v3.9c0,0.8-0.4,1.3-1.2,1.3s-1.2-0.5-1.2-1.3
				v-3.9H40z"/>
		</g>
		<g>
			<path class="st12" d="M37.2,350.7c-4.6,0-8.4-3.8-8.4-8.4s3.8-8.4,8.4-8.4c4.6,0,8.4,3.8,8.4,8.4S41.8,350.7,37.2,350.7z
				 M37.2,334.2c-4.4,0-8.1,3.6-8.1,8.1c0,4.4,3.6,8.1,8.1,8.1s8.1-3.6,8.1-8.1C45.3,337.8,41.6,334.2,37.2,334.2z"/>
		</g>
		<g class="st20">
			<polygon class="st12" points="42.1,335.7 42,335.6 45.4,331.2 45.6,331.4 			"/>
		</g>
		<g class="st20">
			
				<rect x="48.1" y="339.7" transform="matrix(9.467738e-03 -1 1 9.467738e-03 -294.7298 387.4346)" class="st12" width="0.2" height="5.6"/>
		</g>
		<g class="st20">
			
				<rect x="26.1" y="339.7" transform="matrix(9.467738e-03 -1 1 9.467738e-03 -316.5084 365.3957)" class="st12" width="0.2" height="5.6"/>
		</g>
		<g class="st20">
			<polygon class="st12" points="28.9,353.2 28.8,353 32.2,348.7 32.4,348.8 			"/>
		</g>
		<g class="st20">
			
				<rect x="42.4" y="349" transform="matrix(0.8671 -0.4981 0.4981 0.8671 -169.5876 67.9267)" class="st12" width="0.2" height="5.6"/>
		</g>
		<g class="st20">
			
				<rect x="31.9" y="329.8" transform="matrix(0.8671 -0.4981 0.4981 0.8671 -161.4248 60.1237)" class="st12" width="0.2" height="5.6"/>
		</g>
		<g class="st30">
			<path class="st12" d="M49.9,338.6l0-0.1l-0.7,0.2c0-0.1-0.1-0.1-0.2-0.1c0,0,0,0,0,0c-0.2-0.6-0.8-2.7-2.7-4.4c0,0,0-0.1,0-0.1
				c0-0.1-0.1-0.2-0.2-0.2c-0.1,0-0.2,0.1-0.2,0.2c0,0.1,0.1,0.2,0.2,0.2c0,0,0.1,0,0.1,0c1.9,1.8,2.5,3.8,2.7,4.4
				c0,0-0.1,0.1-0.1,0.1c0,0.1,0.1,0.2,0.2,0.2c0.1,0,0.2-0.1,0.2-0.2L49.9,338.6z"/>
			<path class="st12" d="M45,334.7C45,334.7,45,334.7,45,334.7c0-0.2-0.1-0.3-0.2-0.3c-0.1,0-0.2,0.1-0.2,0.2c0,0,0,0.1,0,0.1
				l-0.8,0.8l0.1,0.1c1.4,1,1.8,2.4,1.9,2.7l-1.1,0.4l0,0.1l1.3-0.5l0-0.1c0,0-0.4-1.7-1.9-2.8l0.7-0.7c0,0,0.1,0,0.1,0
				c0.1,0,0.1,0,0.2-0.1c0.9,0.5,2.6,2.3,3.4,5.6l0.1,0C47.5,336.5,45.6,335.1,45,334.7z"/>
			<path class="st12" d="M47,340.6c-0.1,0-0.2,0.1-0.2,0.2l-1.5,0.3l0,0.1l1.5-0.3c0,0.1,0.1,0.1,0.2,0.1c0.1,0,0.2-0.1,0.2-0.2
				C47.2,340.7,47.1,340.6,47,340.6z"/>
		</g>
		<g class="st30">
			<path class="st12" d="M27.1,333.7l-0.1,0.1l0.5,0.5c0,0.1,0,0.1,0,0.2c0,0,0,0,0,0c-0.4,0.5-1.8,2.2-2.2,4.7c0,0-0.1,0-0.1,0
				c-0.1,0.1-0.1,0.2-0.1,0.3c0.1,0.1,0.2,0.1,0.3,0.1c0.1-0.1,0.1-0.2,0.1-0.3c0,0,0-0.1-0.1-0.1c0.5-2.5,1.8-4.2,2.2-4.7
				c0.1,0,0.1,0,0.2,0c0.1-0.1,0.1-0.2,0.1-0.3c-0.1-0.1-0.2-0.1-0.3-0.1L27.1,333.7z"/>
			<path class="st12" d="M26.5,340C26.5,340,26.5,340,26.5,340c-0.1,0.1-0.2,0.2-0.1,0.3c0.1,0.1,0.2,0.1,0.3,0.1c0,0,0.1,0,0.1-0.1
				l1.1,0.2l0-0.1c0.1-1.7,1-2.9,1.2-3.1l1,0.7l0.1-0.1l-1.1-0.8l0,0c0,0-1.2,1.2-1.3,3.2l-0.9-0.2c0,0,0-0.1,0-0.1
				c0,0-0.1-0.1-0.1-0.1c0-1,0.5-3.4,2.9-5.9l-0.1-0.1C26.7,336.9,26.5,339.3,26.5,340z"/>
			<path class="st12" d="M30.4,335c0.1,0.1,0.2,0.1,0.3,0.1l1,1.1l0.1-0.1l-1-1.1c0-0.1,0-0.2,0-0.2c-0.1-0.1-0.2-0.1-0.3-0.1
				C30.3,334.8,30.3,334.9,30.4,335z"/>
		</g>
		<g class="st30">
			<path class="st12" d="M39,331.4c-1-0.2-2.6-0.3-4.6,0.3l-0.7-2l-0.1,0l0.8,2.1l0.1,0c3.5-1.1,5.9,0.1,6.2,0.3l-0.6,1
				c-1.6-0.5-3.6-0.4-4.3-0.3c-0.1-0.1-0.1-0.1-0.2-0.1c-0.2,0-0.3,0.1-0.3,0.3c0,0.1,0.1,0.2,0.2,0.3v1h0.1v-1
				c0.1,0,0.3-0.1,0.3-0.3c0,0,0,0,0,0c0.7-0.1,2.6-0.2,4.2,0.3l0.1,0l0.8-1.2l0,0C40.7,332,40.1,331.6,39,331.4z"/>
			<path class="st12" d="M35.5,330.3c0-0.1-0.1-0.2-0.3-0.2c-0.2,0-0.3,0.1-0.3,0.3c0,0.1,0.1,0.3,0.3,0.3c0.1,0,0.2-0.1,0.3-0.2
				c0.9-0.1,3.3-0.4,5.5,0.6l0.1-0.1C38.8,329.9,36.4,330.1,35.5,330.3z"/>
		</g>
		<g class="st30">
			<path class="st12" d="M45.6,350.4c-0.2,0.2-0.7,0.5-1.1,0.7c-0.1-0.1-0.1-0.1-0.2-0.1c-0.2,0-0.3,0.1-0.3,0.3
				c0,0.2,0.1,0.3,0.3,0.3c0,0,0.1,0,0.1,0l0.9,1.2l0.1-0.1l-0.9-1.2c0-0.1,0.1-0.1,0.1-0.2c0,0,0-0.1,0-0.1
				c0.3-0.2,0.8-0.5,1.1-0.7L45.6,350.4z"/>
			<path class="st12" d="M47.4,344c0-0.1-0.1-0.2-0.3-0.2c-0.2,0-0.3,0.1-0.3,0.3c0,0.2,0.1,0.3,0.3,0.3c0.1,0,0.3-0.1,0.3-0.2
				l3,0.2l0-0.1L47.4,344z"/>
			<path class="st12" d="M47.3,348.1c0.4-0.8,0.6-1.7,0.6-1.8l0-0.1l-1.3-0.4l0,0.1c-0.4,1.7-2.2,3.4-2.5,3.7l-1.4-1.2l-0.1,0.1
				l1.5,1.3l0,0c0.1-0.1,2.1-1.9,2.6-3.7l1,0.3c-0.1,0.3-0.6,1.9-1.2,2.7c0,0-0.1-0.1-0.2-0.1c-0.2,0-0.3,0.1-0.3,0.3
				c0,0.2,0.1,0.3,0.3,0.3c0.2,0,0.3-0.1,0.3-0.3c0,0,0-0.1,0-0.1C46.9,348.9,47.1,348.5,47.3,348.1l1.4,0.7l0.1-0.1L47.3,348.1
				L47.3,348.1z"/>
		</g>
		<g class="st30">
			<path class="st12" d="M25.8,345c0-0.3,0-0.9,0-1.2c0.1,0,0.1-0.1,0.2-0.1c0.1-0.1,0.1-0.3-0.1-0.4c-0.1-0.1-0.3-0.1-0.4,0.1
				c0,0,0,0.1,0,0.1l-1.5,0.1l0,0.1l1.4-0.1c0,0.1,0.1,0.1,0.1,0.2c0,0,0.1,0,0.1,0c0,0.3-0.1,0.9,0,1.2L25.8,345z"/>
			<path class="st12" d="M29.9,349.9c0.1,0,0.3,0,0.3-0.1c0.1-0.1,0.1-0.3-0.1-0.4s-0.3-0.1-0.4,0.1c-0.1,0.1-0.1,0.3,0,0.3
				l-1.8,2.3l0.1,0.1L29.9,349.9z"/>
			<path class="st12" d="M26.7,347.6c0.5,0.8,1,1.4,1.1,1.5l0,0.1l1-0.8l0-0.1c-1.1-1.2-1.5-3.6-1.6-4l1.8-0.5l0-0.1l-1.9,0.5l0,0.1
				c0,0.1,0.4,2.7,1.5,4.1l-0.8,0.7c-0.2-0.3-1.2-1.5-1.5-2.4c0.1,0,0.1-0.1,0.1-0.1c0.1-0.1,0.1-0.3-0.1-0.4
				c-0.1-0.1-0.3-0.1-0.4,0.1c-0.1,0.1-0.1,0.3,0.1,0.4c0,0,0.1,0,0.1,0C26.3,346.9,26.5,347.2,26.7,347.6l-1.3,0.7l0.1,0.1
				L26.7,347.6L26.7,347.6z"/>
		</g>
		<g class="st30">
			<path class="st12" d="M41.3,352.4L41.3,352.4c-0.1,0-0.8,0.3-1.9,0.4c0-0.1-0.1-0.2-0.2-0.2c-0.1,0-0.2,0.1-0.2,0.2
				c0,0.1,0.1,0.2,0.2,0.2c0.1,0,0.2,0,0.2-0.1c0.9-0.1,1.6-0.3,1.8-0.4l1.2,2.5l0.1-0.1L41.3,352.4z"/>
			<path class="st12" d="M40.8,351.1l-0.1-0.1c-1.1,0.5-2.3,0.7-3.3,0.8c0-0.1-0.1-0.1-0.1-0.1v-1.1h-0.1v1.1
				c-0.1,0-0.1,0.1-0.2,0.1c-1.8,0-3.4-0.6-3.9-0.8c0,0,0,0,0-0.1c0-0.1-0.1-0.2-0.2-0.2c-0.1,0-0.2,0.1-0.2,0.2
				c0,0.1,0.1,0.2,0.2,0.2c0,0,0.1,0,0.1,0c0.5,0.2,2.1,0.8,4,0.8c0,0.1,0.1,0.2,0.2,0.2c0.1,0,0.2-0.1,0.2-0.2
				C38.5,351.9,39.6,351.7,40.8,351.1z"/>
			<path class="st12" d="M33.9,352.7c-0.1,0-0.2,0-0.2,0.1C33,352.7,32,352,32,352l-0.1,0l-1.6,2.4l0.1,0.1l1.5-2.3
				c0.2,0.1,1.1,0.6,1.7,0.8c0,0.1,0.1,0.2,0.2,0.2c0.1,0,0.2-0.1,0.2-0.2C34.2,352.8,34.1,352.7,33.9,352.7z"/>
		</g>
	</g>
</g>
</svg>
