<svg id="Layer_1" data-name="Layer 1" xmlns="http://www.w3.org/2000/svg" viewBox="0 0 149.52 40.75"><defs><style>.cls-1{isolation:isolate;}.cls-2{opacity:0.75;}.cls-3{fill:#ffd573;}.cls-4{fill:#ebb331;}.cls-5{fill:none;}.cls-6{fill:#b49300;}.cls-7{fill:#ffcf1f;}</style></defs><title>PayLOGO</title><g id="Group_250" data-name="Group 250"><g id="IPB_AY" data-name="IPB AY" class="cls-1"><g class="cls-1"><path d="M8.88,41.26H2.29V12.59H8.88Z" transform="translate(-2.29 -3)"/><path d="M31.19,24.68a11.55,11.55,0,0,1-.92,4.62,12,12,0,0,1-2.53,3.81A12.32,12.32,0,0,1,24,35.7a11.52,11.52,0,0,1-4.61,1v4.57H12.78V12.63h6.59a11.7,11.7,0,0,1,4.61,1,12.58,12.58,0,0,1,3.76,2.62,12,12,0,0,1,2.53,3.8A11.55,11.55,0,0,1,31.19,24.68ZM19.37,30.1a5.1,5.1,0,0,0,2.05-.49,5.66,5.66,0,0,0,1.66-1.17,5.32,5.32,0,0,0,1.11-1.7,5.43,5.43,0,0,0,.41-2.08,5.44,5.44,0,0,0-1.52-3.77,5.5,5.5,0,0,0-1.66-1.18,5.28,5.28,0,0,0-2.05-.49Z" transform="translate(-2.29 -3)"/><path d="M50.5,24a10.15,10.15,0,0,1,2.88,3.29,8.92,8.92,0,0,1,.2,8,9.9,9.9,0,0,1-2.36,3.1,11.54,11.54,0,0,1-3.49,2.09,12,12,0,0,1-4.25.76H35.09V12.51l7.61,0a9.19,9.19,0,0,1,3.39.63,9.36,9.36,0,0,1,2.81,1.69,8.06,8.06,0,0,1,1.89,2.5,7.06,7.06,0,0,1,.68,3.06A7,7,0,0,1,50.5,24ZM41.68,19.1v2.66h1a2.78,2.78,0,0,0,1.56-.48,1.18,1.18,0,0,0,.59-.87c0-.26-.2-.55-.59-.85a2.55,2.55,0,0,0-1.59-.46Zm1.8,15.57a5.37,5.37,0,0,0,1.65-.26,5,5,0,0,0,1.41-.69,3.33,3.33,0,0,0,1-1,2.17,2.17,0,0,0,.35-1.19,2.29,2.29,0,0,0-.35-1.22,3.4,3.4,0,0,0-1-1,5,5,0,0,0-1.41-.69,5.37,5.37,0,0,0-1.65-.25h-1.8v6.32Z" transform="translate(-2.29 -3)"/><path d="M119.6,41.26l-1.13-3.47h-9l-1.17,3.47h-7l9.75-28.63h6.24l9.25,28.63ZM111.73,31.2h4.64l-2.27-6.95Z" transform="translate(-2.29 -3)"/><path d="M132.94,41.26l3.32-8.12L126.47,12.4h7.29l5.89,12.44,5-12.44h7.14L140.08,41.26Z" transform="translate(-2.29 -3)"/></g></g><g id="Group_135" data-name="Group 135"><g id="Group_11" data-name="Group 11" class="cls-2"><g id="Group_1" data-name="Group 1"><g id="Rectangle_3" data-name="Rectangle 3"><path class="cls-3" d="M66.85,40.35h9.24a1.7,1.7,0,0,1,1.7,1.7h0a1.7,1.7,0,0,1-1.7,1.69H66.85a1.7,1.7,0,0,1-1.7-1.69h0A1.7,1.7,0,0,1,66.85,40.35Z" transform="translate(-2.29 -3)"/></g></g><g id="Group_2" data-name="Group 2"><g id="Rectangle_4" data-name="Rectangle 4"><path class="cls-4" d="M66.65,40.54h9.64a1.5,1.5,0,0,1,1.5,1.5h0a1.5,1.5,0,0,1-1.5,1.49H66.65A1.5,1.5,0,0,1,65.15,42h0A1.5,1.5,0,0,1,66.65,40.54Z" transform="translate(-2.29 -3)"/></g></g><g id="Group_3" data-name="Group 3"><g id="Line_1" data-name="Line 1"><line class="cls-5" x1="63.64" y1="38.02" x2="63.64" y2="40.09"/></g><g id="Path_3" data-name="Path 3"><path class="cls-6" d="M65.93,43.17a.08.08,0,0,1-.08-.09h0V41a.08.08,0,0,1,.08-.08h0A.09.09,0,0,1,66,41h0v2.07a.09.09,0,0,1-.08.09Z" transform="translate(-2.29 -3)"/></g></g><g id="Group_4" data-name="Group 4"><g id="Line_2" data-name="Line 2"><line class="cls-5" x1="65.07" y1="38.02" x2="65.07" y2="40.09"/></g><g id="Path_4" data-name="Path 4"><path class="cls-6" d="M67.36,43.17a.08.08,0,0,1-.08-.09h0V41a.08.08,0,0,1,.08-.08h0a.08.08,0,0,1,.08.08h0v2.07a.08.08,0,0,1-.08.09Z" transform="translate(-2.29 -3)"/></g></g><g id="Group_5" data-name="Group 5"><g id="Line_3" data-name="Line 3"><line class="cls-5" x1="66.57" y1="38.02" x2="66.57" y2="40.09"/></g><g id="Path_5" data-name="Path 5"><path class="cls-6" d="M68.86,43.17a.09.09,0,0,1-.08-.09h0V41a.09.09,0,0,1,.08-.08h0A.09.09,0,0,1,69,41h0v2.07a.09.09,0,0,1-.09.09Z" transform="translate(-2.29 -3)"/></g></g><g id="Group_6" data-name="Group 6"><g id="Line_4" data-name="Line 4"><line class="cls-5" x1="68.21" y1="38.02" x2="68.21" y2="40.09"/></g><g id="Path_6" data-name="Path 6"><path class="cls-6" d="M70.51,43.17a.09.09,0,0,1-.09-.09h0V41a.09.09,0,0,1,.17,0v2.07A.09.09,0,0,1,70.51,43.17Z" transform="translate(-2.29 -3)"/></g></g><g id="Group_7" data-name="Group 7"><g id="Line_5" data-name="Line 5"><line class="cls-5" x1="69.94" y1="38.02" x2="69.94" y2="40.09"/></g><g id="Path_7" data-name="Path 7"><path class="cls-6" d="M72.23,43.17a.09.09,0,0,1-.09-.09h0V41a.09.09,0,1,1,.17,0h0v2.07A.09.09,0,0,1,72.23,43.17Z" transform="translate(-2.29 -3)"/></g></g><g id="Group_8" data-name="Group 8"><g id="Line_6" data-name="Line 6"><line class="cls-5" x1="71.55" y1="38.02" x2="71.55" y2="40.09"/></g><g id="Path_8" data-name="Path 8"><path class="cls-6" d="M73.84,43.17a.09.09,0,0,1-.08-.09h0V41a.1.1,0,0,1,.07-.09.1.1,0,0,1,.1.08h0v2.07A.09.09,0,0,1,73.84,43.17Z" transform="translate(-2.29 -3)"/></g></g><g id="Group_9" data-name="Group 9"><g id="Line_7" data-name="Line 7"><line class="cls-5" x1="73.12" y1="38.02" x2="73.12" y2="40.09"/></g><g id="Path_9" data-name="Path 9"><path class="cls-6" d="M75.42,43.17a.09.09,0,0,1-.09-.09h0V41a.1.1,0,0,1,.1-.07s.06,0,.07.07v2.07A.09.09,0,0,1,75.42,43.17Z" transform="translate(-2.29 -3)"/></g></g><g id="Group_10" data-name="Group 10"><g id="Line_8" data-name="Line 8"><line class="cls-5" x1="74.67" y1="38.02" x2="74.67" y2="40.09"/></g><g id="Path_10" data-name="Path 10"><path class="cls-6" d="M77,43.17a.09.09,0,0,1-.08-.09h0V41a.1.1,0,0,1,.07-.09.1.1,0,0,1,.1.08h0v2.07A.09.09,0,0,1,77,43.17Z" transform="translate(-2.29 -3)"/></g></g></g><g id="Group_22" data-name="Group 22" class="cls-2"><g id="Group_12" data-name="Group 12"><g id="Rectangle_5" data-name="Rectangle 5"><path class="cls-3" d="M65.89,37h9.24a1.69,1.69,0,0,1,1.69,1.69h0a1.7,1.7,0,0,1-1.69,1.7H65.89a1.7,1.7,0,0,1-1.7-1.7h0A1.7,1.7,0,0,1,65.89,37Z" transform="translate(-2.29 -3)"/></g></g><g id="Group_13" data-name="Group 13"><g id="Rectangle_6" data-name="Rectangle 6"><path class="cls-4" d="M65.68,37.15h9.65a1.49,1.49,0,0,1,1.49,1.49h0a1.5,1.5,0,0,1-1.49,1.5H65.68a1.5,1.5,0,0,1-1.49-1.5h0A1.49,1.49,0,0,1,65.68,37.15Z" transform="translate(-2.29 -3)"/></g></g><g id="Group_14" data-name="Group 14"><g id="Line_9" data-name="Line 9"><line class="cls-5" x1="62.67" y1="34.62" x2="62.67" y2="36.69"/></g><g id="Path_11" data-name="Path 11"><path class="cls-6" d="M65,39.77a.08.08,0,0,1-.08-.08h0V37.62a.09.09,0,0,1,.08-.08h0a.09.09,0,0,1,.09.08h0v2.07a.09.09,0,0,1-.08.08Z" transform="translate(-2.29 -3)"/></g></g><g id="Group_15" data-name="Group 15"><g id="Line_10" data-name="Line 10"><line class="cls-5" x1="64.1" y1="34.62" x2="64.1" y2="36.69"/></g><g id="Path_12" data-name="Path 12"><path class="cls-6" d="M66.39,39.77a.08.08,0,0,1-.08-.08h0V37.62a.09.09,0,0,1,.08-.08h0a.09.09,0,0,1,.09.08h0v2.07a.09.09,0,0,1-.08.08Z" transform="translate(-2.29 -3)"/></g></g><g id="Group_16" data-name="Group 16"><g id="Line_11" data-name="Line 11"><line class="cls-5" x1="65.61" y1="34.62" x2="65.61" y2="36.69"/></g><g id="Path_13" data-name="Path 13"><path class="cls-6" d="M67.9,39.77a.07.07,0,0,1-.08-.08h0V37.62a.08.08,0,0,1,.08-.08h0a.08.08,0,0,1,.08.08h0v2.07a.08.08,0,0,1-.08.08Z" transform="translate(-2.29 -3)"/></g></g><g id="Group_17" data-name="Group 17"><g id="Line_12" data-name="Line 12"><line class="cls-5" x1="67.25" y1="34.62" x2="67.25" y2="36.69"/></g><g id="Path_14" data-name="Path 14"><path class="cls-6" d="M69.54,39.77a.08.08,0,0,1-.08-.08h0V37.62a.09.09,0,0,1,.08-.08h0a.08.08,0,0,1,.08.08h0v2.07a.08.08,0,0,1-.08.08Z" transform="translate(-2.29 -3)"/></g></g><g id="Group_18" data-name="Group 18"><g id="Line_13" data-name="Line 13"><line class="cls-5" x1="68.97" y1="34.62" x2="68.97" y2="36.69"/></g><g id="Path_15" data-name="Path 15"><path class="cls-6" d="M71.26,39.77a.08.08,0,0,1-.08-.08h0V37.62s0-.08.09-.07a.08.08,0,0,1,.08.07v2.07a.09.09,0,0,1-.09.08Z" transform="translate(-2.29 -3)"/></g></g><g id="Group_19" data-name="Group 19"><g id="Line_14" data-name="Line 14"><line class="cls-5" x1="70.59" y1="34.62" x2="70.59" y2="36.69"/></g><g id="Path_16" data-name="Path 16"><path class="cls-6" d="M72.87,39.77a.08.08,0,0,1-.08-.08h0V37.62s0-.08.09-.07a.08.08,0,0,1,.08.07v2.07A.09.09,0,0,1,72.87,39.77Z" transform="translate(-2.29 -3)"/></g></g><g id="Group_20" data-name="Group 20"><g id="Line_15" data-name="Line 15"><line class="cls-5" x1="72.16" y1="34.62" x2="72.16" y2="36.69"/></g><g id="Path_17" data-name="Path 17"><path class="cls-6" d="M74.45,39.77a.08.08,0,0,1-.09-.08h0V37.62a.09.09,0,0,1,.1-.07.08.08,0,0,1,.07.07v2.07a.09.09,0,0,1-.08.08Z" transform="translate(-2.29 -3)"/></g></g><g id="Group_21" data-name="Group 21"><g id="Line_16" data-name="Line 16"><line class="cls-5" x1="73.71" y1="34.62" x2="73.71" y2="36.69"/></g><g id="Path_18" data-name="Path 18"><path class="cls-6" d="M76,39.77a.07.07,0,0,1-.08-.08h0V37.62a.07.07,0,0,1,.09-.07.07.07,0,0,1,.07.07v2.07a.08.08,0,0,1-.08.08Z" transform="translate(-2.29 -3)"/></g></g></g><g id="Group_33" data-name="Group 33" class="cls-2"><g id="Group_23" data-name="Group 23"><g id="Rectangle_7" data-name="Rectangle 7"><path class="cls-3" d="M67.82,33.57h9.24a1.7,1.7,0,0,1,1.7,1.7h0A1.7,1.7,0,0,1,77.06,37H67.82a1.7,1.7,0,0,1-1.7-1.69h0A1.7,1.7,0,0,1,67.82,33.57Z" transform="translate(-2.29 -3)"/></g></g><g id="Group_24" data-name="Group 24"><g id="Rectangle_8" data-name="Rectangle 8"><path class="cls-4" d="M67.62,33.76h9.64a1.5,1.5,0,0,1,1.5,1.5h0a1.5,1.5,0,0,1-1.5,1.49H67.62a1.5,1.5,0,0,1-1.5-1.49h0A1.5,1.5,0,0,1,67.62,33.76Z" transform="translate(-2.29 -3)"/></g></g><g id="Group_25" data-name="Group 25"><g id="Line_17" data-name="Line 17"><line class="cls-5" x1="64.6" y1="31.24" x2="64.6" y2="33.31"/></g><g id="Path_19" data-name="Path 19"><path class="cls-6" d="M66.9,36.39a.09.09,0,0,1-.09-.09h0V34.24a.09.09,0,0,1,.09-.09h0a.09.09,0,0,1,.08.09h0V36.3a.09.09,0,0,1-.08.09Z" transform="translate(-2.29 -3)"/></g></g><g id="Group_26" data-name="Group 26"><g id="Line_18" data-name="Line 18"><line class="cls-5" x1="66.03" y1="31.24" x2="66.03" y2="33.31"/></g><g id="Path_20" data-name="Path 20"><path class="cls-6" d="M68.33,36.39a.09.09,0,0,1-.09-.09h0V34.24a.09.09,0,0,1,.09-.09h0a.09.09,0,0,1,.08.09h0V36.3a.09.09,0,0,1-.08.09Z" transform="translate(-2.29 -3)"/></g></g><g id="Group_27" data-name="Group 27"><g id="Line_19" data-name="Line 19"><line class="cls-5" x1="67.54" y1="31.24" x2="67.54" y2="33.31"/></g><g id="Path_21" data-name="Path 21"><path class="cls-6" d="M69.83,36.39a.09.09,0,0,1-.08-.09h0V34.24a.09.09,0,0,1,.08-.09h0a.09.09,0,0,1,.09.09h0V36.3a.09.09,0,0,1-.09.09Z" transform="translate(-2.29 -3)"/></g></g><g id="Group_28" data-name="Group 28"><g id="Line_20" data-name="Line 20"><line class="cls-5" x1="69.18" y1="31.24" x2="69.18" y2="33.31"/></g><g id="Path_22" data-name="Path 22"><path class="cls-6" d="M71.47,36.39a.09.09,0,0,1-.08-.09h0V34.24a.09.09,0,0,1,.09-.08.11.11,0,0,1,.08.08V36.3A.09.09,0,0,1,71.47,36.39Z" transform="translate(-2.29 -3)"/></g></g><g id="Group_29" data-name="Group 29"><g id="Line_21" data-name="Line 21"><line class="cls-5" x1="70.9" y1="31.24" x2="70.9" y2="33.31"/></g><g id="Path_23" data-name="Path 23"><path class="cls-6" d="M73.19,36.39a.08.08,0,0,1-.08-.09h0V34.24a.08.08,0,0,1,.09-.08.08.08,0,0,1,.07.08V36.3A.08.08,0,0,1,73.19,36.39Z" transform="translate(-2.29 -3)"/></g></g><g id="Group_30" data-name="Group 30"><g id="Line_22" data-name="Line 22"><line class="cls-5" x1="72.52" y1="31.24" x2="72.52" y2="33.31"/></g><g id="Path_24" data-name="Path 24"><path class="cls-6" d="M74.81,36.39a.09.09,0,0,1-.08-.09h0V34.24a.09.09,0,0,1,.09-.08.08.08,0,0,1,.07.08V36.3A.08.08,0,0,1,74.81,36.39Z" transform="translate(-2.29 -3)"/></g></g><g id="Group_31" data-name="Group 31"><g id="Line_23" data-name="Line 23"><line class="cls-5" x1="74.09" y1="31.24" x2="74.09" y2="33.31"/></g><g id="Path_25" data-name="Path 25"><path class="cls-6" d="M76.39,36.39a.09.09,0,0,1-.09-.09h0V34.24a.09.09,0,0,1,.09-.08.11.11,0,0,1,.08.08V36.3A.09.09,0,0,1,76.39,36.39Z" transform="translate(-2.29 -3)"/></g></g><g id="Group_32" data-name="Group 32"><g id="Line_24" data-name="Line 24"><line class="cls-5" x1="75.64" y1="31.24" x2="75.64" y2="33.31"/></g><g id="Path_26" data-name="Path 26"><path class="cls-6" d="M77.93,36.39a.09.09,0,0,1-.09-.09h0V34.24a.09.09,0,0,1,.09-.08.11.11,0,0,1,.08.08V36.3A.09.09,0,0,1,77.93,36.39Z" transform="translate(-2.29 -3)"/></g></g></g><g id="Group_44" data-name="Group 44" class="cls-2"><g id="Group_34" data-name="Group 34"><g id="Rectangle_9" data-name="Rectangle 9"><path class="cls-3" d="M68,30.17h9.24a1.7,1.7,0,0,1,1.7,1.7h0a1.7,1.7,0,0,1-1.7,1.7H68a1.7,1.7,0,0,1-1.69-1.7h0A1.7,1.7,0,0,1,68,30.17Z" transform="translate(-2.29 -3)"/></g></g><g id="Group_35" data-name="Group 35"><g id="Rectangle_10" data-name="Rectangle 10"><path class="cls-4" d="M67.82,30.37h9.64A1.5,1.5,0,0,1,79,31.86h0a1.5,1.5,0,0,1-1.5,1.5H67.82a1.5,1.5,0,0,1-1.49-1.5h0A1.49,1.49,0,0,1,67.82,30.37Z" transform="translate(-2.29 -3)"/></g></g><g id="Group_36" data-name="Group 36"><g id="Line_25" data-name="Line 25"><line class="cls-5" x1="64.81" y1="27.84" x2="64.81" y2="29.91"/></g><g id="Path_27" data-name="Path 27"><path class="cls-6" d="M67.1,33a.08.08,0,0,1-.08-.08V30.84a.07.07,0,0,1,.08-.08h0a.07.07,0,0,1,.08.08h0v2.07A.08.08,0,0,1,67.1,33Z" transform="translate(-2.29 -3)"/></g></g><g id="Group_37" data-name="Group 37"><g id="Line_26" data-name="Line 26"><line class="cls-5" x1="66.24" y1="27.84" x2="66.24" y2="29.91"/></g><g id="Path_28" data-name="Path 28"><path class="cls-6" d="M68.53,33a.09.09,0,0,1-.08-.08V30.84a.08.08,0,0,1,.08-.08h0a.07.07,0,0,1,.08.08h0v2.07A.08.08,0,0,1,68.53,33Z" transform="translate(-2.29 -3)"/></g></g><g id="Group_38" data-name="Group 38"><g id="Line_27" data-name="Line 27"><line class="cls-5" x1="67.74" y1="27.84" x2="67.74" y2="29.91"/></g><g id="Path_29" data-name="Path 29"><path class="cls-6" d="M70,33a.09.09,0,0,1-.09-.08V30.84a.08.08,0,0,1,.1-.07.08.08,0,0,1,.07.07v2.07A.09.09,0,0,1,70,33Z" transform="translate(-2.29 -3)"/></g></g><g id="Group_39" data-name="Group 39"><g id="Line_28" data-name="Line 28"><line class="cls-5" x1="69.39" y1="27.84" x2="69.39" y2="29.91"/></g><g id="Path_30" data-name="Path 30"><path class="cls-6" d="M71.68,33a.08.08,0,0,1-.08-.08V30.84a.07.07,0,0,1,.09-.07.07.07,0,0,1,.07.07v2.07A.09.09,0,0,1,71.68,33Z" transform="translate(-2.29 -3)"/></g></g><g id="Group_40" data-name="Group 40"><g id="Line_29" data-name="Line 29"><line class="cls-5" x1="71.11" y1="27.84" x2="71.11" y2="29.91"/></g><g id="Path_31" data-name="Path 31"><path class="cls-6" d="M73.4,33a.08.08,0,0,1-.08-.08V30.84a.07.07,0,0,1,.09-.07.07.07,0,0,1,.07.07v2.07A.08.08,0,0,1,73.4,33Z" transform="translate(-2.29 -3)"/></g></g><g id="Group_41" data-name="Group 41"><g id="Line_30" data-name="Line 30"><line class="cls-5" x1="72.72" y1="27.84" x2="72.72" y2="29.91"/></g><g id="Path_32" data-name="Path 32"><path class="cls-6" d="M75,33a.09.09,0,0,1-.09-.08V30.84a.08.08,0,0,1,.09-.07.08.08,0,0,1,.08.07v2.07A.09.09,0,0,1,75,33Z" transform="translate(-2.29 -3)"/></g></g><g id="Group_42" data-name="Group 42"><g id="Line_31" data-name="Line 31"><line class="cls-5" x1="74.3" y1="27.84" x2="74.3" y2="29.91"/></g><g id="Path_33" data-name="Path 33"><path class="cls-6" d="M76.59,33a.08.08,0,0,1-.08-.08V30.84a.07.07,0,0,1,.09-.07.07.07,0,0,1,.07.07v2.07A.09.09,0,0,1,76.59,33Z" transform="translate(-2.29 -3)"/></g></g><g id="Group_43" data-name="Group 43"><g id="Line_32" data-name="Line 32"><line class="cls-5" x1="75.84" y1="27.84" x2="75.84" y2="29.91"/></g><g id="Path_34" data-name="Path 34"><path class="cls-6" d="M78.14,33a.09.09,0,0,1-.09-.08V30.84a.08.08,0,0,1,.09-.07.08.08,0,0,1,.08.07v2.07A.09.09,0,0,1,78.14,33Z" transform="translate(-2.29 -3)"/></g></g></g><g id="Group_55" data-name="Group 55" class="cls-2"><g id="Group_45" data-name="Group 45"><g id="Rectangle_11" data-name="Rectangle 11"><path class="cls-3" d="M66.54,26.79h9.24a1.7,1.7,0,0,1,1.7,1.7h0a1.7,1.7,0,0,1-1.7,1.69H66.54a1.7,1.7,0,0,1-1.7-1.69h0A1.7,1.7,0,0,1,66.54,26.79Z" transform="translate(-2.29 -3)"/></g></g><g id="Group_46" data-name="Group 46"><g id="Rectangle_12" data-name="Rectangle 12"><path class="cls-4" d="M66.34,27H76a1.5,1.5,0,0,1,1.5,1.5h0A1.5,1.5,0,0,1,76,30H66.34a1.5,1.5,0,0,1-1.5-1.49h0A1.5,1.5,0,0,1,66.34,27Z" transform="translate(-2.29 -3)"/></g></g><g id="Group_47" data-name="Group 47"><g id="Line_33" data-name="Line 33"><line class="cls-5" x1="63.33" y1="24.46" x2="63.33" y2="26.53"/></g><g id="Path_35" data-name="Path 35"><path class="cls-6" d="M65.62,29.61a.08.08,0,0,1-.08-.09h0V27.46a.08.08,0,0,1,.08-.09h0a.09.09,0,0,1,.08.09h0v2.06a.09.09,0,0,1-.08.09Z" transform="translate(-2.29 -3)"/></g></g><g id="Group_48" data-name="Group 48"><g id="Line_34" data-name="Line 34"><line class="cls-5" x1="64.76" y1="24.46" x2="64.76" y2="26.53"/></g><g id="Path_36" data-name="Path 36"><path class="cls-6" d="M67.05,29.61a.08.08,0,0,1-.08-.09h0V27.46a.08.08,0,0,1,.08-.09h0a.08.08,0,0,1,.08.09h0v2.06a.08.08,0,0,1-.08.09Z" transform="translate(-2.29 -3)"/></g></g><g id="Group_49" data-name="Group 49"><g id="Line_35" data-name="Line 35"><line class="cls-5" x1="66.26" y1="24.46" x2="66.26" y2="26.53"/></g><g id="Path_37" data-name="Path 37"><path class="cls-6" d="M68.55,29.61a.09.09,0,0,1-.08-.09h0V27.46a.09.09,0,0,1,.08-.09h0a.09.09,0,0,1,.09.09h0v2.06a.09.09,0,0,1-.09.09Z" transform="translate(-2.29 -3)"/></g></g><g id="Group_50" data-name="Group 50"><g id="Line_36" data-name="Line 36"><line class="cls-5" x1="67.9" y1="24.46" x2="67.9" y2="26.53"/></g><g id="Path_38" data-name="Path 38"><path class="cls-6" d="M70.2,29.61a.09.09,0,0,1-.09-.09h0V27.46a.09.09,0,0,1,.09-.08.11.11,0,0,1,.08.08v2.06A.09.09,0,0,1,70.2,29.61Z" transform="translate(-2.29 -3)"/></g></g><g id="Group_51" data-name="Group 51"><g id="Line_37" data-name="Line 37"><line class="cls-5" x1="69.63" y1="24.46" x2="69.63" y2="26.53"/></g><g id="Path_39" data-name="Path 39"><path class="cls-6" d="M71.92,29.61a.08.08,0,0,1-.08-.09h0V27.46a.08.08,0,0,1,.07-.1.09.09,0,0,1,.09.08v2.08A.09.09,0,0,1,71.92,29.61Z" transform="translate(-2.29 -3)"/></g></g><g id="Group_52" data-name="Group 52"><g id="Line_38" data-name="Line 38"><line class="cls-5" x1="71.24" y1="24.46" x2="71.24" y2="26.53"/></g><g id="Path_40" data-name="Path 40"><path class="cls-6" d="M73.53,29.61a.09.09,0,0,1-.08-.09h0V27.46a.09.09,0,0,1,.09-.08.08.08,0,0,1,.07.08v2.06A.08.08,0,0,1,73.53,29.61Z" transform="translate(-2.29 -3)"/></g></g><g id="Group_53" data-name="Group 53"><g id="Line_39" data-name="Line 39"><line class="cls-5" x1="72.81" y1="24.46" x2="72.81" y2="26.53"/></g><g id="Path_41" data-name="Path 41"><path class="cls-6" d="M75.11,29.61a.09.09,0,0,1-.09-.09h0V27.46a.1.1,0,0,1,.1-.08.11.11,0,0,1,.07.08v2.06A.09.09,0,0,1,75.11,29.61Z" transform="translate(-2.29 -3)"/></g></g><g id="Group_54" data-name="Group 54"><g id="Line_40" data-name="Line 40"><line class="cls-5" x1="74.36" y1="24.46" x2="74.36" y2="26.53"/></g><g id="Path_42" data-name="Path 42"><path class="cls-6" d="M76.65,29.61a.09.09,0,0,1-.08-.09h0V27.46a.09.09,0,0,1,.09-.08.11.11,0,0,1,.08.08v2.06A.09.09,0,0,1,76.65,29.61Z" transform="translate(-2.29 -3)"/></g></g></g><g id="Group_66" data-name="Group 66" class="cls-2"><g id="Group_56" data-name="Group 56"><g id="Rectangle_13" data-name="Rectangle 13"><path class="cls-3" d="M71.38,23.38h9.24a1.69,1.69,0,0,1,1.7,1.69h0a1.7,1.7,0,0,1-1.7,1.7H71.38a1.7,1.7,0,0,1-1.7-1.7h0A1.69,1.69,0,0,1,71.38,23.38Z" transform="translate(-2.29 -3)"/></g></g><g id="Group_57" data-name="Group 57"><g id="Rectangle_14" data-name="Rectangle 14"><path class="cls-4" d="M71.18,23.57h9.64a1.5,1.5,0,0,1,1.5,1.49h0a1.5,1.5,0,0,1-1.5,1.5H71.18a1.5,1.5,0,0,1-1.5-1.5h0A1.5,1.5,0,0,1,71.18,23.57Z" transform="translate(-2.29 -3)"/></g></g><g id="Group_58" data-name="Group 58"><g id="Line_41" data-name="Line 41"><line class="cls-5" x1="68.16" y1="21.04" x2="68.16" y2="23.11"/></g><g id="Path_43" data-name="Path 43"><path class="cls-6" d="M70.46,26.19a.09.09,0,0,1-.09-.08h0V24a.09.09,0,0,1,.08-.09s.08,0,.09.07v2.09A.09.09,0,0,1,70.46,26.19Z" transform="translate(-2.29 -3)"/></g></g><g id="Group_59" data-name="Group 59"><g id="Line_42" data-name="Line 42"><line class="cls-5" x1="69.59" y1="21.04" x2="69.59" y2="23.11"/></g><g id="Path_44" data-name="Path 44"><path class="cls-6" d="M71.89,26.19a.09.09,0,0,1-.09-.08h0V24a.09.09,0,0,1,.08-.09S72,24,72,24v2.09A.09.09,0,0,1,71.89,26.19Z" transform="translate(-2.29 -3)"/></g></g><g id="Group_60" data-name="Group 60"><g id="Line_43" data-name="Line 43"><line class="cls-5" x1="71.1" y1="21.04" x2="71.1" y2="23.11"/></g><g id="Path_45" data-name="Path 45"><path class="cls-6" d="M73.39,26.19a.09.09,0,0,1-.08-.08h0V24s0-.09.07-.09a.09.09,0,0,1,.1.07v2.09A.09.09,0,0,1,73.39,26.19Z" transform="translate(-2.29 -3)"/></g></g><g id="Group_61" data-name="Group 61"><g id="Line_44" data-name="Line 44"><line class="cls-5" x1="72.74" y1="21.04" x2="72.74" y2="23.11"/></g><g id="Path_46" data-name="Path 46"><path class="cls-6" d="M75,26.19a.09.09,0,0,1-.08-.08h0V24S75,24,75,24a.09.09,0,0,1,.1.07v2.09A.09.09,0,0,1,75,26.19Z" transform="translate(-2.29 -3)"/></g></g><g id="Group_62" data-name="Group 62"><g id="Line_45" data-name="Line 45"><line class="cls-5" x1="74.46" y1="21.04" x2="74.46" y2="23.11"/></g><g id="Path_47" data-name="Path 47"><path class="cls-6" d="M76.76,26.19a.09.09,0,0,1-.09-.08h0V24a.09.09,0,0,1,.08-.09s.08,0,.09.07v2.09A.09.09,0,0,1,76.76,26.19Z" transform="translate(-2.29 -3)"/></g></g><g id="Group_63" data-name="Group 63"><g id="Line_46" data-name="Line 46"><line class="cls-5" x1="76.08" y1="21.04" x2="76.08" y2="23.11"/></g><g id="Path_48" data-name="Path 48"><path class="cls-6" d="M78.37,26.19a.09.09,0,0,1-.08-.08h0V24a.08.08,0,0,1,.07-.09.07.07,0,0,1,.09.07v2.09A.08.08,0,0,1,78.37,26.19Z" transform="translate(-2.29 -3)"/></g></g><g id="Group_64" data-name="Group 64"><g id="Line_47" data-name="Line 47"><line class="cls-5" x1="77.65" y1="21.04" x2="77.65" y2="23.11"/></g><g id="Path_49" data-name="Path 49"><path class="cls-6" d="M80,26.19a.09.09,0,0,1-.09-.08h0V24a.09.09,0,0,1,.08-.09S80,24,80,24v2.09A.09.09,0,0,1,80,26.19Z" transform="translate(-2.29 -3)"/></g></g><g id="Group_65" data-name="Group 65"><g id="Line_48" data-name="Line 48"><line class="cls-5" x1="79.2" y1="21.04" x2="79.2" y2="23.11"/></g><g id="Path_50" data-name="Path 50"><path class="cls-6" d="M81.49,26.19a.09.09,0,0,1-.08-.08h0V24a.08.08,0,0,1,.07-.09.07.07,0,0,1,.09.07v2.09A.08.08,0,0,1,81.49,26.19Z" transform="translate(-2.29 -3)"/></g></g></g><g id="Group_77" data-name="Group 77" class="cls-2"><g id="Group_67" data-name="Group 67"><g id="Rectangle_15" data-name="Rectangle 15"><path class="cls-3" d="M67.06,20H76.3a1.7,1.7,0,0,1,1.7,1.7h0a1.7,1.7,0,0,1-1.7,1.69H67.06a1.7,1.7,0,0,1-1.7-1.69h0A1.7,1.7,0,0,1,67.06,20Z" transform="translate(-2.29 -3)"/></g></g><g id="Group_68" data-name="Group 68"><g id="Rectangle_16" data-name="Rectangle 16"><path class="cls-4" d="M66.86,20.18H76.5a1.5,1.5,0,0,1,1.5,1.5h0a1.5,1.5,0,0,1-1.5,1.49H66.86a1.5,1.5,0,0,1-1.5-1.49h0A1.5,1.5,0,0,1,66.86,20.18Z" transform="translate(-2.29 -3)"/></g></g><g id="Group_69" data-name="Group 69"><g id="Line_49" data-name="Line 49"><line class="cls-5" x1="63.85" y1="17.66" x2="63.85" y2="19.73"/></g><g id="Path_51" data-name="Path 51"><path class="cls-6" d="M66.14,22.81a.08.08,0,0,1-.08-.08V20.66a.08.08,0,0,1,.08-.09h0a.09.09,0,0,1,.08.09h0v2.07A.09.09,0,0,1,66.14,22.81Z" transform="translate(-2.29 -3)"/></g></g><g id="Group_70" data-name="Group 70"><g id="Line_50" data-name="Line 50"><line class="cls-5" x1="65.28" y1="17.66" x2="65.28" y2="19.73"/></g><g id="Path_52" data-name="Path 52"><path class="cls-6" d="M67.57,22.81a.08.08,0,0,1-.08-.08V20.66a.08.08,0,0,1,.08-.09h0a.08.08,0,0,1,.08.09h0v2.07A.09.09,0,0,1,67.57,22.81Z" transform="translate(-2.29 -3)"/></g></g><g id="Group_71" data-name="Group 71"><g id="Line_51" data-name="Line 51"><line class="cls-5" x1="66.78" y1="17.66" x2="66.78" y2="19.73"/></g><g id="Path_53" data-name="Path 53"><path class="cls-6" d="M69.07,22.81a.09.09,0,0,1-.08-.08V20.66a.09.09,0,0,1,.08-.09h0a.09.09,0,0,1,.09.09h0v2.07A.09.09,0,0,1,69.07,22.81Z" transform="translate(-2.29 -3)"/></g></g><g id="Group_72" data-name="Group 72"><g id="Line_52" data-name="Line 52"><line class="cls-5" x1="68.42" y1="17.66" x2="68.42" y2="19.73"/></g><g id="Path_54" data-name="Path 54"><path class="cls-6" d="M70.72,22.81a.09.09,0,0,1-.09-.08V20.66a.09.09,0,0,1,.09-.08.11.11,0,0,1,.08.08v2.07A.09.09,0,0,1,70.72,22.81Z" transform="translate(-2.29 -3)"/></g></g><g id="Group_73" data-name="Group 73"><g id="Line_53" data-name="Line 53"><line class="cls-5" x1="70.15" y1="17.66" x2="70.15" y2="19.73"/></g><g id="Path_55" data-name="Path 55"><path class="cls-6" d="M72.44,22.81a.08.08,0,0,1-.08-.08V20.66a.08.08,0,0,1,.09-.08.08.08,0,0,1,.07.08v2.07a.09.09,0,0,1-.08.08Z" transform="translate(-2.29 -3)"/></g></g><g id="Group_74" data-name="Group 74"><g id="Line_54" data-name="Line 54"><line class="cls-5" x1="71.76" y1="17.66" x2="71.76" y2="19.73"/></g><g id="Path_56" data-name="Path 56"><path class="cls-6" d="M74.05,22.81a.09.09,0,0,1-.08-.08V20.66a.09.09,0,0,1,.09-.08.11.11,0,0,1,.08.08v2.07a.09.09,0,0,1-.09.08Z" transform="translate(-2.29 -3)"/></g></g><g id="Group_75" data-name="Group 75"><g id="Line_55" data-name="Line 55"><line class="cls-5" x1="73.33" y1="17.66" x2="73.33" y2="19.73"/></g><g id="Path_57" data-name="Path 57"><path class="cls-6" d="M75.63,22.81a.09.09,0,0,1-.09-.08V20.66a.1.1,0,0,1,.1-.08.11.11,0,0,1,.07.08v2.07A.09.09,0,0,1,75.63,22.81Z" transform="translate(-2.29 -3)"/></g></g><g id="Group_76" data-name="Group 76"><g id="Line_56" data-name="Line 56"><line class="cls-5" x1="74.88" y1="17.66" x2="74.88" y2="19.73"/></g><g id="Path_58" data-name="Path 58"><path class="cls-6" d="M77.17,22.81a.09.09,0,0,1-.08-.08V20.66a.09.09,0,0,1,.09-.08.11.11,0,0,1,.08.08v2.07a.09.09,0,0,1-.09.08Z" transform="translate(-2.29 -3)"/></g></g></g><g id="Group_88" data-name="Group 88" class="cls-2"><g id="Group_78" data-name="Group 78"><g id="Rectangle_17" data-name="Rectangle 17"><path class="cls-3" d="M66.54,16.6h9.24a1.7,1.7,0,0,1,1.7,1.69h0a1.7,1.7,0,0,1-1.7,1.7H66.54a1.7,1.7,0,0,1-1.7-1.7h0A1.7,1.7,0,0,1,66.54,16.6Z" transform="translate(-2.29 -3)"/></g></g><g id="Group_79" data-name="Group 79"><g id="Rectangle_18" data-name="Rectangle 18"><path class="cls-4" d="M66.34,16.79H76a1.5,1.5,0,0,1,1.5,1.5h0A1.5,1.5,0,0,1,76,19.78H66.34a1.5,1.5,0,0,1-1.5-1.49h0A1.5,1.5,0,0,1,66.34,16.79Z" transform="translate(-2.29 -3)"/></g></g><g id="Group_80" data-name="Group 80"><g id="Line_57" data-name="Line 57"><line class="cls-5" x1="63.33" y1="14.27" x2="63.33" y2="16.34"/></g><g id="Path_59" data-name="Path 59"><path class="cls-6" d="M65.62,19.42a.08.08,0,0,1-.08-.09h0V17.26a.08.08,0,0,1,.08-.08h0a.09.09,0,0,1,.08.08h0v2.07a.09.09,0,0,1-.08.09Z" transform="translate(-2.29 -3)"/></g></g><g id="Group_81" data-name="Group 81"><g id="Line_58" data-name="Line 58"><line class="cls-5" x1="64.76" y1="14.27" x2="64.76" y2="16.34"/></g><g id="Path_60" data-name="Path 60"><path class="cls-6" d="M67.05,19.42a.08.08,0,0,1-.08-.09h0V17.26a.08.08,0,0,1,.08-.08h0a.08.08,0,0,1,.08.08h0v2.07a.08.08,0,0,1-.08.09Z" transform="translate(-2.29 -3)"/></g></g><g id="Group_82" data-name="Group 82"><g id="Line_59" data-name="Line 59"><line class="cls-5" x1="66.26" y1="14.27" x2="66.26" y2="16.34"/></g><g id="Path_61" data-name="Path 61"><path class="cls-6" d="M68.55,19.42a.09.09,0,0,1-.08-.09h0V17.26a.09.09,0,0,1,.08-.08h0a.09.09,0,0,1,.09.08h0v2.07a.09.09,0,0,1-.09.09Z" transform="translate(-2.29 -3)"/></g></g><g id="Group_83" data-name="Group 83"><g id="Line_60" data-name="Line 60"><line class="cls-5" x1="67.9" y1="14.27" x2="67.9" y2="16.34"/></g><g id="Path_62" data-name="Path 62"><path class="cls-6" d="M70.2,19.42a.09.09,0,0,1-.09-.09h0V17.26a.09.09,0,1,1,.17,0h0v2.07A.1.1,0,0,1,70.2,19.42Z" transform="translate(-2.29 -3)"/></g></g><g id="Group_84" data-name="Group 84"><g id="Line_61" data-name="Line 61"><line class="cls-5" x1="69.63" y1="14.27" x2="69.63" y2="16.34"/></g><g id="Path_63" data-name="Path 63"><path class="cls-6" d="M71.92,19.42a.08.08,0,0,1-.08-.09h0V17.26a.08.08,0,0,1,.07-.09.09.09,0,0,1,.09.08h0v2.07A.1.1,0,0,1,71.92,19.42Z" transform="translate(-2.29 -3)"/></g></g><g id="Group_85" data-name="Group 85"><g id="Line_62" data-name="Line 62"><line class="cls-5" x1="71.24" y1="14.27" x2="71.24" y2="16.34"/></g><g id="Path_64" data-name="Path 64"><path class="cls-6" d="M73.53,19.42a.09.09,0,0,1-.08-.09h0V17.26s0-.08.07-.09a.08.08,0,0,1,.09.08h0v2.07A.09.09,0,0,1,73.53,19.42Z" transform="translate(-2.29 -3)"/></g></g><g id="Group_86" data-name="Group 86"><g id="Line_63" data-name="Line 63"><line class="cls-5" x1="72.81" y1="14.27" x2="72.81" y2="16.34"/></g><g id="Path_65" data-name="Path 65"><path class="cls-6" d="M75.11,19.42a.09.09,0,0,1-.09-.09h0V17.26a.09.09,0,1,1,.17,0h0v2.07A.1.1,0,0,1,75.11,19.42Z" transform="translate(-2.29 -3)"/></g></g><g id="Group_87" data-name="Group 87"><g id="Line_64" data-name="Line 64"><line class="cls-5" x1="74.36" y1="14.27" x2="74.36" y2="16.34"/></g><g id="Path_66" data-name="Path 66"><path class="cls-6" d="M76.65,19.42a.09.09,0,0,1-.08-.09h0V17.26a.1.1,0,0,1,.07-.09.1.1,0,0,1,.1.08h0v2.07C76.74,19.38,76.7,19.41,76.65,19.42Z" transform="translate(-2.29 -3)"/></g></g></g><g id="Group_99" data-name="Group 99" class="cls-2"><g id="Group_89" data-name="Group 89"><g id="Rectangle_19" data-name="Rectangle 19"><path class="cls-3" d="M70,13.28h9.25A1.7,1.7,0,0,1,80.92,15h0a1.69,1.69,0,0,1-1.69,1.69H70A1.69,1.69,0,0,1,68.29,15h0A1.7,1.7,0,0,1,70,13.28Z" transform="translate(-2.29 -3)"/></g></g><g id="Group_90" data-name="Group 90"><g id="Rectangle_20" data-name="Rectangle 20"><path class="cls-4" d="M69.78,13.47h9.65A1.5,1.5,0,0,1,80.92,15h0a1.49,1.49,0,0,1-1.49,1.49H69.78A1.49,1.49,0,0,1,68.29,15h0A1.5,1.5,0,0,1,69.78,13.47Z" transform="translate(-2.29 -3)"/></g></g><g id="Group_91" data-name="Group 91"><g id="Line_65" data-name="Line 65"><line class="cls-5" x1="66.77" y1="10.95" x2="66.77" y2="13.02"/></g><g id="Path_67" data-name="Path 67"><path class="cls-6" d="M69.06,16.1A.09.09,0,0,1,69,16h0V14a.09.09,0,0,1,.08-.09h0a.09.09,0,0,1,.09.09h0V16a.09.09,0,0,1-.09.08Z" transform="translate(-2.29 -3)"/></g></g><g id="Group_92" data-name="Group 92"><g id="Line_66" data-name="Line 66"><line class="cls-5" x1="68.2" y1="10.95" x2="68.2" y2="13.02"/></g><g id="Path_68" data-name="Path 68"><path class="cls-6" d="M70.49,16.1a.09.09,0,0,1-.08-.08h0V14a.1.1,0,0,1,.07-.1.1.1,0,0,1,.1.08V16A.09.09,0,0,1,70.49,16.1Z" transform="translate(-2.29 -3)"/></g></g><g id="Group_93" data-name="Group 93"><g id="Line_67" data-name="Line 67"><line class="cls-5" x1="69.71" y1="10.95" x2="69.71" y2="13.02"/></g><g id="Path_69" data-name="Path 69"><path class="cls-6" d="M72,16.1a.08.08,0,0,1-.08-.08h0V14a.08.08,0,0,1,.09-.08.08.08,0,0,1,.07.08V16A.09.09,0,0,1,72,16.1Z" transform="translate(-2.29 -3)"/></g></g><g id="Group_94" data-name="Group 94"><g id="Line_68" data-name="Line 68"><line class="cls-5" x1="71.35" y1="10.95" x2="71.35" y2="13.02"/></g><g id="Path_70" data-name="Path 70"><path class="cls-6" d="M73.64,16.1a.08.08,0,0,1-.08-.08h0V14a.09.09,0,0,1,.07-.1.08.08,0,0,1,.09.08V16A.08.08,0,0,1,73.64,16.1Z" transform="translate(-2.29 -3)"/></g></g><g id="Group_95" data-name="Group 95"><g id="Line_69" data-name="Line 69"><line class="cls-5" x1="73.07" y1="10.95" x2="73.07" y2="13.02"/></g><g id="Path_71" data-name="Path 71"><path class="cls-6" d="M75.36,16.1a.09.09,0,0,1-.08-.08h0V14a.08.08,0,0,1,.09-.08.08.08,0,0,1,.07.08V16A.08.08,0,0,1,75.36,16.1Z" transform="translate(-2.29 -3)"/></g></g><g id="Group_96" data-name="Group 96"><g id="Line_70" data-name="Line 70"><line class="cls-5" x1="74.68" y1="10.95" x2="74.68" y2="13.02"/></g><g id="Path_72" data-name="Path 72"><path class="cls-6" d="M77,16.1a.09.09,0,0,1-.09-.08h0V14a.1.1,0,0,1,.08-.1.09.09,0,0,1,.09.08V16A.09.09,0,0,1,77,16.1Z" transform="translate(-2.29 -3)"/></g></g><g id="Group_97" data-name="Group 97"><g id="Line_71" data-name="Line 71"><line class="cls-5" x1="76.26" y1="10.95" x2="76.26" y2="13.02"/></g><g id="Path_73" data-name="Path 73"><path class="cls-6" d="M78.56,16.1a.09.09,0,0,1-.09-.08h0V14a.1.1,0,0,1,.08-.1.09.09,0,0,1,.09.08V16A.09.09,0,0,1,78.56,16.1Z" transform="translate(-2.29 -3)"/></g></g><g id="Group_98" data-name="Group 98"><g id="Line_72" data-name="Line 72"><line class="cls-5" x1="77.81" y1="10.95" x2="77.81" y2="13.02"/></g><g id="Path_74" data-name="Path 74"><path class="cls-6" d="M80.1,16.1A.09.09,0,0,1,80,16h0V14a.1.1,0,0,1,.08-.1.09.09,0,0,1,.09.08V16A.09.09,0,0,1,80.1,16.1Z" transform="translate(-2.29 -3)"/></g></g></g><g id="Group_110" data-name="Group 110" class="cls-2"><g id="Group_100" data-name="Group 100"><g id="Rectangle_21" data-name="Rectangle 21"><path class="cls-3" d="M67.3,9.8h9.24a1.7,1.7,0,0,1,1.7,1.69h0a1.7,1.7,0,0,1-1.7,1.7H67.3a1.7,1.7,0,0,1-1.7-1.7h0A1.7,1.7,0,0,1,67.3,9.8Z" transform="translate(-2.29 -3)"/></g></g><g id="Group_101" data-name="Group 101"><g id="Rectangle_22" data-name="Rectangle 22"><path class="cls-4" d="M67.1,10h9.64a1.5,1.5,0,0,1,1.5,1.49h0a1.5,1.5,0,0,1-1.5,1.5H67.1a1.5,1.5,0,0,1-1.5-1.5h0A1.5,1.5,0,0,1,67.1,10Z" transform="translate(-2.29 -3)"/></g></g><g id="Group_102" data-name="Group 102"><g id="Line_73" data-name="Line 73"><line class="cls-5" x1="64.08" y1="7.47" x2="64.08" y2="9.54"/></g><g id="Path_75" data-name="Path 75"><path class="cls-6" d="M66.37,12.61a.07.07,0,0,1-.08-.08h0V10.46a.07.07,0,0,1,.08-.08h0a.07.07,0,0,1,.08.08h0v2.07s0,.08-.08.08Z" transform="translate(-2.29 -3)"/></g></g><g id="Group_103" data-name="Group 103"><g id="Line_74" data-name="Line 74"><line class="cls-5" x1="65.51" y1="7.47" x2="65.51" y2="9.54"/></g><g id="Path_76" data-name="Path 76"><path class="cls-6" d="M67.81,12.61a.08.08,0,0,1-.09-.08h0V10.46a.08.08,0,0,1,.09-.08h0a.08.08,0,0,1,.08.08h0v2.07a.08.08,0,0,1-.08.08Z" transform="translate(-2.29 -3)"/></g></g><g id="Group_104" data-name="Group 104"><g id="Line_75" data-name="Line 75"><line class="cls-5" x1="67.02" y1="7.47" x2="67.02" y2="9.54"/></g><g id="Path_77" data-name="Path 77"><path class="cls-6" d="M69.31,12.61a.08.08,0,0,1-.08-.08h0V10.46a.08.08,0,0,1,.08-.08h0a.07.07,0,0,1,.08.08h0v2.07a.07.07,0,0,1-.07.08Z" transform="translate(-2.29 -3)"/></g></g><g id="Group_105" data-name="Group 105"><g id="Line_76" data-name="Line 76"><line class="cls-5" x1="68.66" y1="7.47" x2="68.66" y2="9.54"/></g><g id="Path_78" data-name="Path 78"><path class="cls-6" d="M71,12.61a.08.08,0,0,1-.08-.08h0V10.46a.08.08,0,0,1,.07-.09.09.09,0,0,1,.1.07v2.09a.09.09,0,0,1-.08.08Z" transform="translate(-2.29 -3)"/></g></g><g id="Group_106" data-name="Group 106"><g id="Line_77" data-name="Line 77"><line class="cls-5" x1="70.38" y1="7.47" x2="70.38" y2="9.54"/></g><g id="Path_79" data-name="Path 79"><path class="cls-6" d="M72.68,12.61a.08.08,0,0,1-.09-.08h0V10.46a.08.08,0,0,1,.08-.09s.08,0,.09.07v2.09a.09.09,0,0,1-.08.08Z" transform="translate(-2.29 -3)"/></g></g><g id="Group_107" data-name="Group 107"><g id="Line_78" data-name="Line 78"><line class="cls-5" x1="72" y1="7.47" x2="72" y2="9.54"/></g><g id="Path_80" data-name="Path 80"><path class="cls-6" d="M74.29,12.61a.07.07,0,0,1-.08-.08h0V10.46a.08.08,0,1,1,.16,0v2.09a.08.08,0,0,1-.08.08Z" transform="translate(-2.29 -3)"/></g></g><g id="Group_108" data-name="Group 108"><g id="Line_79" data-name="Line 79"><line class="cls-5" x1="73.57" y1="7.47" x2="73.57" y2="9.54"/></g><g id="Path_81" data-name="Path 81"><path class="cls-6" d="M75.86,12.61a.08.08,0,0,1-.08-.08h0V10.46a.08.08,0,0,1,.07-.09.09.09,0,0,1,.1.07v2.09a.09.09,0,0,1-.08.08Z" transform="translate(-2.29 -3)"/></g></g><g id="Group_109" data-name="Group 109"><g id="Line_80" data-name="Line 80"><line class="cls-5" x1="75.12" y1="7.47" x2="75.12" y2="9.54"/></g><g id="Path_82" data-name="Path 82"><path class="cls-6" d="M77.41,12.61a.08.08,0,0,1-.08-.08h0V10.46a.08.08,0,0,1,.16,0v2.09s0,.08-.08.08Z" transform="translate(-2.29 -3)"/></g></g></g><g id="Group_121" data-name="Group 121" class="cls-2"><g id="Group_111" data-name="Group 111"><g id="Rectangle_23" data-name="Rectangle 23"><path class="cls-3" d="M68.33,6.4h9.24a1.7,1.7,0,0,1,1.7,1.7h0a1.7,1.7,0,0,1-1.7,1.7H68.33a1.7,1.7,0,0,1-1.69-1.7h0A1.7,1.7,0,0,1,68.33,6.4Z" transform="translate(-2.29 -3)"/></g></g><g id="Group_112" data-name="Group 112"><g id="Rectangle_24" data-name="Rectangle 24"><path class="cls-4" d="M68.13,6.6h9.64a1.5,1.5,0,0,1,1.5,1.49h0a1.5,1.5,0,0,1-1.5,1.5H68.13a1.5,1.5,0,0,1-1.49-1.5h0A1.49,1.49,0,0,1,68.13,6.6Z" transform="translate(-2.29 -3)"/></g></g><g id="Group_113" data-name="Group 113"><g id="Line_81" data-name="Line 81"><line class="cls-5" x1="65.12" y1="4.07" x2="65.12" y2="6.14"/></g><g id="Path_83" data-name="Path 83"><path class="cls-6" d="M67.41,9.22a.08.08,0,0,1-.08-.08h0V7.07A.07.07,0,0,1,67.41,7h0a.07.07,0,0,1,.08.08h0V9.14A.08.08,0,0,1,67.41,9.22Z" transform="translate(-2.29 -3)"/></g></g><g id="Group_114" data-name="Group 114"><g id="Line_82" data-name="Line 82"><line class="cls-5" x1="66.55" y1="4.07" x2="66.55" y2="6.14"/></g><g id="Path_84" data-name="Path 84"><path class="cls-6" d="M68.84,9.22a.09.09,0,0,1-.08-.08h0V7.07A.08.08,0,0,1,68.84,7h0a.07.07,0,0,1,.08.08h0V9.14A.07.07,0,0,1,68.84,9.22Z" transform="translate(-2.29 -3)"/></g></g><g id="Group_115" data-name="Group 115"><g id="Line_83" data-name="Line 83"><line class="cls-5" x1="68.05" y1="4.07" x2="68.05" y2="6.14"/></g><g id="Path_85" data-name="Path 85"><path class="cls-6" d="M70.35,9.22a.09.09,0,0,1-.09-.08h0V7.07A.08.08,0,0,1,70.35,7a.08.08,0,0,1,.08.07V9.14A.08.08,0,0,1,70.35,9.22Z" transform="translate(-2.29 -3)"/></g></g><g id="Group_116" data-name="Group 116"><g id="Line_84" data-name="Line 84"><line class="cls-5" x1="69.7" y1="4.07" x2="69.7" y2="6.14"/></g><g id="Path_86" data-name="Path 86"><path class="cls-6" d="M72,9.22a.08.08,0,0,1-.08-.08h0V7.07A.07.07,0,0,1,72,7a.07.07,0,0,1,.07.07V9.14A.08.08,0,0,1,72,9.22Z" transform="translate(-2.29 -3)"/></g></g><g id="Group_117" data-name="Group 117"><g id="Line_85" data-name="Line 85"><line class="cls-5" x1="71.42" y1="4.07" x2="71.42" y2="6.14"/></g><g id="Path_87" data-name="Path 87"><path class="cls-6" d="M73.71,9.22a.08.08,0,0,1-.08-.08h0V7.07a.08.08,0,0,1,.16,0V9.14A.08.08,0,0,1,73.71,9.22Z" transform="translate(-2.29 -3)"/></g></g><g id="Group_118" data-name="Group 118"><g id="Line_86" data-name="Line 86"><line class="cls-5" x1="73.03" y1="4.07" x2="73.03" y2="6.14"/></g><g id="Path_88" data-name="Path 88"><path class="cls-6" d="M75.32,9.22a.09.09,0,0,1-.08-.08h0V7.07A.08.08,0,0,1,75.33,7a.08.08,0,0,1,.08.07V9.14A.09.09,0,0,1,75.32,9.22Z" transform="translate(-2.29 -3)"/></g></g><g id="Group_119" data-name="Group 119"><g id="Line_87" data-name="Line 87"><line class="cls-5" x1="74.61" y1="4.07" x2="74.61" y2="6.14"/></g><g id="Path_89" data-name="Path 89"><path class="cls-6" d="M76.9,9.22a.08.08,0,0,1-.08-.08h0V7.07A.07.07,0,0,1,76.91,7a.07.07,0,0,1,.07.07V9.14A.08.08,0,0,1,76.9,9.22Z" transform="translate(-2.29 -3)"/></g></g><g id="Group_120" data-name="Group 120"><g id="Line_88" data-name="Line 88"><line class="cls-5" x1="76.15" y1="4.07" x2="76.15" y2="6.14"/></g><g id="Path_90" data-name="Path 90"><path class="cls-6" d="M78.45,9.22a.09.09,0,0,1-.09-.08h0V7.07A.08.08,0,0,1,78.45,7a.08.08,0,0,1,.08.07V9.14A.08.08,0,0,1,78.45,9.22Z" transform="translate(-2.29 -3)"/></g></g></g><g id="Group_132" data-name="Group 132" class="cls-2"><g id="Group_122" data-name="Group 122"><g id="Rectangle_25" data-name="Rectangle 25"><path class="cls-3" d="M67.65,3h9.24a1.7,1.7,0,0,1,1.7,1.69h0a1.7,1.7,0,0,1-1.7,1.7H67.65A1.7,1.7,0,0,1,66,4.69h0A1.7,1.7,0,0,1,67.65,3Z" transform="translate(-2.29 -3)"/></g></g><g id="Group_123" data-name="Group 123"><g id="Rectangle_26" data-name="Rectangle 26"><path class="cls-4" d="M67.45,3.19h9.64a1.5,1.5,0,0,1,1.5,1.49h0a1.5,1.5,0,0,1-1.5,1.5H67.45A1.5,1.5,0,0,1,66,4.68h0A1.5,1.5,0,0,1,67.45,3.19Z" transform="translate(-2.29 -3)"/></g></g><g id="Group_124" data-name="Group 124"><g id="Line_89" data-name="Line 89"><line class="cls-5" x1="64.43" y1="0.67" x2="64.43" y2="2.74"/></g><g id="Path_91" data-name="Path 91"><path class="cls-6" d="M66.73,5.81a.08.08,0,0,1-.09-.08h0V3.66a.09.09,0,0,1,.09-.08h0a.09.09,0,0,1,.08.08h0V5.73A.08.08,0,0,1,66.73,5.81Z" transform="translate(-2.29 -3)"/></g></g><g id="Group_125" data-name="Group 125"><g id="Line_90" data-name="Line 90"><line class="cls-5" x1="65.86" y1="0.67" x2="65.86" y2="2.74"/></g><g id="Path_92" data-name="Path 92"><path class="cls-6" d="M68.16,5.81a.08.08,0,0,1-.09-.08h0V3.66a.09.09,0,0,1,.09-.08h0a.09.09,0,0,1,.08.08h0V5.73A.08.08,0,0,1,68.16,5.81Z" transform="translate(-2.29 -3)"/></g></g><g id="Group_126" data-name="Group 126"><g id="Line_91" data-name="Line 91"><line class="cls-5" x1="67.37" y1="0.67" x2="67.37" y2="2.74"/></g><g id="Path_93" data-name="Path 93"><path class="cls-6" d="M69.66,5.81a.08.08,0,0,1-.08-.08h0V3.66a.09.09,0,0,1,.08-.08h0a.09.09,0,0,1,.09.08h0V5.73A.08.08,0,0,1,69.66,5.81Z" transform="translate(-2.29 -3)"/></g></g><g id="Group_127" data-name="Group 127"><g id="Line_92" data-name="Line 92"><line class="cls-5" x1="69.01" y1="0.67" x2="69.01" y2="2.74"/></g><g id="Path_94" data-name="Path 94"><path class="cls-6" d="M71.3,5.81a.08.08,0,0,1-.08-.08h0V3.66a.1.1,0,0,1,.07-.09.1.1,0,0,1,.1.07V5.73A.08.08,0,0,1,71.3,5.81Z" transform="translate(-2.29 -3)"/></g></g><g id="Group_128" data-name="Group 128"><g id="Line_93" data-name="Line 93"><line class="cls-5" x1="70.73" y1="0.67" x2="70.73" y2="2.74"/></g><g id="Path_95" data-name="Path 95"><path class="cls-6" d="M73,5.81a.08.08,0,0,1-.09-.08h0V3.66A.09.09,0,0,1,73,3.57a.1.1,0,0,1,.09.07V5.73A.08.08,0,0,1,73,5.81Z" transform="translate(-2.29 -3)"/></g></g><g id="Group_129" data-name="Group 129"><g id="Line_94" data-name="Line 94"><line class="cls-5" x1="72.35" y1="0.67" x2="72.35" y2="2.74"/></g><g id="Path_96" data-name="Path 96"><path class="cls-6" d="M74.64,5.81a.08.08,0,0,1-.08-.08h0V3.66s0-.08.07-.09a.08.08,0,0,1,.09.07V5.73A.07.07,0,0,1,74.64,5.81Z" transform="translate(-2.29 -3)"/></g></g><g id="Group_130" data-name="Group 130"><g id="Line_95" data-name="Line 95"><line class="cls-5" x1="73.92" y1="0.67" x2="73.92" y2="2.74"/></g><g id="Path_97" data-name="Path 97"><path class="cls-6" d="M76.22,5.81a.08.08,0,0,1-.09-.08h0V3.66a.09.09,0,0,1,.08-.09.1.1,0,0,1,.09.07V5.73A.08.08,0,0,1,76.22,5.81Z" transform="translate(-2.29 -3)"/></g></g><g id="Group_131" data-name="Group 131"><g id="Line_96" data-name="Line 96"><line class="cls-5" x1="75.47" y1="0.67" x2="75.47" y2="2.74"/></g><g id="Path_98" data-name="Path 98"><path class="cls-6" d="M77.76,5.81a.08.08,0,0,1-.08-.08h0V3.66s0-.08.07-.09a.08.08,0,0,1,.09.07V5.73A.07.07,0,0,1,77.76,5.81Z" transform="translate(-2.29 -3)"/></g></g></g><g id="Group_134" data-name="Group 134"><g id="Group_133" data-name="Group 133"><g id="Path_99" data-name="Path 99"><path class="cls-7" d="M73,8.13h16q8.2,0,12.22,2.21t4,7.92q0,6.3-4.89,8.7Q95.7,29.14,87.5,29.14h-.43V42.78h6.78v1H73v-1h3.53V9.1H73Zm14.12,1V28.18h1.14q3.26,0,4.5-2.09C93.55,24.7,94,22.45,94,19.33V16.88q0-4.32-1.16-6C92,9.67,90.6,9.1,88.53,9.1Z" transform="translate(-2.29 -3)"/></g></g></g></g></g></svg>