<svg id="Layer_1" data-name="Layer 1" xmlns="http://www.w3.org/2000/svg" viewBox="0 0 334.43 293.9"><defs><style>.cls-1{fill:#b29543;}.cls-2{fill:#f8ce46;}.cls-3{fill:none;stroke:#b29543;stroke-miterlimit:10;opacity:0.53;isolation:isolate;}.cls-4{opacity:0.31;}.cls-5{fill:#e9b344;}.cls-6{opacity:0.65;}.cls-7{fill:#221f20;}</style></defs><title>frontlogo</title><g id="Group_156" data-name="Group 156"><path id="Path_105" data-name="Path 105" d="M41.63,283.58H64.69a23.25,23.25,0,0,1,9.08,1.5,14.23,14.23,0,0,1,5.41,3.78,12.34,12.34,0,0,1,2.6,4.93,19.64,19.64,0,0,1,.7,4.94,19.41,19.41,0,0,1-.7,4.91,12.55,12.55,0,0,1-2.6,4.9,14,14,0,0,1-5.41,3.74,23.63,23.63,0,0,1-9.08,1.47H50.78v18.8H41.63Zm9.15,23.18h13.4a12.43,12.43,0,0,0,3.15-.41,9.22,9.22,0,0,0,3-1.34,7,7,0,0,0,2.2-2.47,8,8,0,0,0,.84-3.88,9.31,9.31,0,0,0-.73-4,6.55,6.55,0,0,0-2-2.51,7.37,7.37,0,0,0-2.86-1.27,16.52,16.52,0,0,0-3.44-.34H50.78Z" transform="translate(-40 -53.06)"/><path id="Path_106" data-name="Path 106" d="M135.14,283.58h9.73l20.13,49h-9.81l-4.9-13H129.42l-4.9,13h-9.44Zm-3.23,29.5h16L140,292h-.22Z" transform="translate(-40 -53.06)"/><path id="Path_107" data-name="Path 107" d="M218.69,313.35l-19.62-29.77h10.61l13.84,21.95,13.61-21.95h10.25l-19.55,29.77v19.2h-9.14Z" transform="translate(-40 -53.06)"/></g><g id="Group_162" data-name="Group 162"><g id="Group_157" data-name="Group 157"><circle id="Ellipse_4" data-name="Ellipse 4" class="cls-1" cx="283.85" cy="255.71" r="38.19"/><circle id="Ellipse_5" data-name="Ellipse 5" class="cls-2" cx="286.87" cy="255.71" r="38.19"/><circle id="Ellipse_6" data-name="Ellipse 6" class="cls-3" cx="286.87" cy="256.69" r="29.83"/></g><g id="Group_161" data-name="Group 161"><g id="Group_158" data-name="Group 158" class="cls-4"><path id="Path_108" data-name="Path 108" class="cls-5" d="M313.69,328.77a3.19,3.19,0,0,1-2.73-1.6,3.69,3.69,0,0,1,1-4.85l19.39-13.55-19.39-13.55a3.67,3.67,0,0,1-1-4.84,3.12,3.12,0,0,1,4.24-1.2,2.26,2.26,0,0,1,.26.16l23.6,16.49a3.66,3.66,0,0,1,0,5.88l-23.6,16.49A3,3,0,0,1,313.69,328.77Z" transform="translate(-40 -53.06)"/></g><g id="Group_159" data-name="Group 159" class="cls-6"><path id="Path_109" data-name="Path 109" class="cls-5" d="M318.3,328.77a3.19,3.19,0,0,1-2.73-1.6,3.69,3.69,0,0,1,1-4.85l19.39-13.55-19.39-13.55a3.67,3.67,0,0,1-1-4.84,3.12,3.12,0,0,1,4.24-1.2,2.26,2.26,0,0,1,.26.16l23.6,16.49a3.66,3.66,0,0,1,0,5.88l-23.6,16.49A3,3,0,0,1,318.3,328.77Z" transform="translate(-40 -53.06)"/></g><g id="Group_160" data-name="Group 160"><path id="Path_110" data-name="Path 110" class="cls-5" d="M322.28,328.77a3.18,3.18,0,0,1-2.73-1.6,3.67,3.67,0,0,1,.95-4.85l19.39-13.55L320.5,295.22a3.67,3.67,0,0,1-1-4.84,3.12,3.12,0,0,1,4.24-1.2l.26.17,23.6,16.49a3.64,3.64,0,0,1,0,5.87L324,328.21A3.07,3.07,0,0,1,322.28,328.77Z" transform="translate(-40 -53.06)"/></g></g></g><path class="cls-7" d="M65,236.63a4.15,4.15,0,0,1-4.2,4.2H46.63a3.54,3.54,0,0,1-1.1-.22,5.94,5.94,0,0,1-1.33.22,4.15,4.15,0,0,1-4.2-4.2V60a4.44,4.44,0,0,1,1.22-3.09,4,4,0,0,1,6,0A4.44,4.44,0,0,1,48.4,60V232.21h8V76.39a3.89,3.89,0,0,1,1.32-3,4.46,4.46,0,0,1,3.1-1.22,4.17,4.17,0,0,1,4.2,4.2Z" transform="translate(-40 -53.06)"/><path class="cls-7" d="M93.15,57.16a4,4,0,0,1,6,0,4.44,4.44,0,0,1,1.22,3.09V238.84a4.2,4.2,0,1,1-8.4,0V60.25A4.43,4.43,0,0,1,93.15,57.16ZM195.6,81q-14.15-12.37-36.8-16.91T109,63.57a3.57,3.57,0,0,1-3.21-.66A4.12,4.12,0,0,1,104.1,60a4.47,4.47,0,0,1,.77-3.2,3.77,3.77,0,0,1,2.76-1.66,171,171,0,0,1,24.54-2.1,126.36,126.36,0,0,1,20.77,1.33,160.56,160.56,0,0,1,16.8,3.53,72.69,72.69,0,0,1,13.81,5.2,116.56,116.56,0,0,1,10.17,5.74,53.6,53.6,0,0,1,7.41,5.75q19,16.8,18.34,38.68a4.33,4.33,0,0,1-.55,2.1,4,4,0,0,1-1.55,1.55,4.22,4.22,0,0,1-2.1.55h-.22a3.85,3.85,0,0,1-3-1.33,3.65,3.65,0,0,1-1-3.09Q211.51,95.17,195.6,81Zm19.67,40a3.92,3.92,0,0,1,3,1.32,4.5,4.5,0,0,1,1.21,3.1q-.45,21-17.68,35.58-21,17.69-59.24,17.68a182.68,182.68,0,0,1-26.08-2A5.33,5.33,0,0,1,113.6,175q-5.53-3.76-5.53-11.5a14.69,14.69,0,0,1,2.1-7.84,9.93,9.93,0,0,1,5.64-4.53.62.62,0,0,1,.44-.23,18.17,18.17,0,0,1,2.43-.44,4.54,4.54,0,0,1,2.43.67q37.58,5.09,61.45-5.53a4.36,4.36,0,0,1,3.2-.11,4,4,0,0,1,2.44,2.21,4.08,4.08,0,0,1-2.33,5.64q-17.9,8-43.1,7.95a187.47,187.47,0,0,1-25-1.77,5.89,5.89,0,0,0-1.33,4,6.47,6.47,0,0,0,.78,3.32c.51.88,1,1.32,1.43,1.32a2.69,2.69,0,0,1,1.55.45A158.58,158.58,0,0,0,151,169.88a99.3,99.3,0,0,0,25.64-4.75,60.1,60.1,0,0,0,19.67-10.72q14.37-11.94,14.81-29.17Q211.07,121.25,215.27,121Z" transform="translate(-40 -53.06)"/><path class="cls-7" d="M342.58,81.25a37.48,37.48,0,0,0-5.53-4.53,83.22,83.22,0,0,0-8.73-5A66.61,66.61,0,0,0,316.06,67q-6.63-1.87-16-3.65a103.74,103.74,0,0,0-20.22-1.66q-10.83.12-25,1.22V241.49a4.48,4.48,0,0,1-1.21,3.1,4,4,0,0,1-6,0,4.45,4.45,0,0,1-1.22-3.1V59.59a4.18,4.18,0,0,1,.89-3.2A3.44,3.44,0,0,1,250.19,55q32-4,57.69,1.22t40.45,18.67q13.92,12.82,13.48,28.51a4.15,4.15,0,0,1-4.2,4.2h-.22a4.94,4.94,0,0,1-3-1.43,3.41,3.41,0,0,1-1-3Q353.62,91.21,342.58,81.25Zm24.53,87.53a53.7,53.7,0,0,1,7.3,24.64,39,39,0,0,1-5.75,22.44,41.18,41.18,0,0,1-9.5,10.83,74.54,74.54,0,0,1-15.81,9.39q-9.84,4.53-25.42,7.18a214.1,214.1,0,0,1-35.69,2.66q-7.08,0-14.37-.45a3.89,3.89,0,0,1-3-1.32,3.75,3.75,0,0,1-1-3.1V108a4.2,4.2,0,1,1,8.4,0V237.07a249.71,249.71,0,0,0,37.58-1.32q16.35-2,26.41-6.08a70.84,70.84,0,0,0,15.91-8.51,36.7,36.7,0,0,0,9.18-9.72,31.42,31.42,0,0,0,4.42-18.13,43.81,43.81,0,0,0-6.19-20.11,45.23,45.23,0,0,0-10.39-12.6Q343.47,156,339,155.74a4.17,4.17,0,0,1-4.2-4.2,4.23,4.23,0,0,1,.56-2.1,4.61,4.61,0,0,1,1.54-1.66,3.75,3.75,0,0,1,2.1-.66h.22a19.81,19.81,0,0,1,9.62,2.76,43,43,0,0,1,9.72,7.63A57.73,57.73,0,0,1,367.11,168.78Zm-13.7-55.92q0-4,4.2-4a3.85,3.85,0,0,1,3.65,2.1,4.79,4.79,0,0,1,.55,2.32q-.45,14.6-13.48,25.64t-35.81,15.69h-.88q-3.54,0-4.2-3.31A4.07,4.07,0,0,1,308,148a3.7,3.7,0,0,1,2.76-1.77q19.23-4,30.72-12.93T353.41,112.86Z" transform="translate(-40 -53.06)"/></svg>